solid OpenSCAD_Model
  facet normal 1 -0 0
    outer loop
      vertex 2 13 3
      vertex 2 18 0
      vertex 2 18 3
    endloop
  endfacet
  facet normal 1 0 0
    outer loop
      vertex 2 18 0
      vertex 2 13 3
      vertex 2 13 0
    endloop
  endfacet
  facet normal -1 0 0
    outer loop
      vertex 3 13 0
      vertex 3 18 3
      vertex 3 18 0
    endloop
  endfacet
  facet normal -1 -0 0
    outer loop
      vertex 3 18 3
      vertex 3 13 0
      vertex 3 13 3
    endloop
  endfacet
  facet normal 0 -1 0
    outer loop
      vertex 2 18 0
      vertex 3 18 3
      vertex 2 18 3
    endloop
  endfacet
  facet normal 0 -1 -0
    outer loop
      vertex 3 18 3
      vertex 2 18 0
      vertex 3 18 0
    endloop
  endfacet
  facet normal 0 1 -0
    outer loop
      vertex 3 13 0
      vertex 2 13 3
      vertex 3 13 3
    endloop
  endfacet
  facet normal 0 1 0
    outer loop
      vertex 2 13 3
      vertex 3 13 0
      vertex 2 13 0
    endloop
  endfacet
  facet normal 1 -0 0
    outer loop
      vertex 7 13 3
      vertex 7 18 0
      vertex 7 18 3
    endloop
  endfacet
  facet normal 1 0 0
    outer loop
      vertex 7 18 0
      vertex 7 13 3
      vertex 7 13 0
    endloop
  endfacet
  facet normal -1 0 0
    outer loop
      vertex 8 13 0
      vertex 8 18 3
      vertex 8 18 0
    endloop
  endfacet
  facet normal -1 -0 0
    outer loop
      vertex 8 18 3
      vertex 8 13 0
      vertex 8 13 3
    endloop
  endfacet
  facet normal 0 -1 0
    outer loop
      vertex 7 18 0
      vertex 8 18 3
      vertex 7 18 3
    endloop
  endfacet
  facet normal 0 -1 -0
    outer loop
      vertex 8 18 3
      vertex 7 18 0
      vertex 8 18 0
    endloop
  endfacet
  facet normal 0 1 -0
    outer loop
      vertex 8 13 0
      vertex 7 13 3
      vertex 8 13 3
    endloop
  endfacet
  facet normal 0 1 0
    outer loop
      vertex 7 13 3
      vertex 8 13 0
      vertex 7 13 0
    endloop
  endfacet
  facet normal 1 -0 0
    outer loop
      vertex 4 6 0.99
      vertex 4 7 0
      vertex 4 7 0.99
    endloop
  endfacet
  facet normal 1 0 0
    outer loop
      vertex 4 7 0
      vertex 4 6 0.99
      vertex 4 6 0
    endloop
  endfacet
  facet normal -1 0 0
    outer loop
      vertex 5 6 0
      vertex 5 7 0.99
      vertex 5 7 0
    endloop
  endfacet
  facet normal -1 -0 0
    outer loop
      vertex 5 7 0.99
      vertex 5 6 0
      vertex 5 6 0.99
    endloop
  endfacet
  facet normal 0 -1 0
    outer loop
      vertex 4 7 0
      vertex 5 7 0.99
      vertex 4 7 0.99
    endloop
  endfacet
  facet normal 0 -1 -0
    outer loop
      vertex 5 7 0.99
      vertex 4 7 0
      vertex 5 7 0
    endloop
  endfacet
  facet normal 0 1 -0
    outer loop
      vertex 5 6 0
      vertex 4 6 0.99
      vertex 5 6 0.99
    endloop
  endfacet
  facet normal 0 1 0
    outer loop
      vertex 4 6 0.99
      vertex 5 6 0
      vertex 4 6 0
    endloop
  endfacet
  facet normal 1 -0 0
    outer loop
      vertex 9 6 0.99
      vertex 9 7 0
      vertex 9 7 0.99
    endloop
  endfacet
  facet normal 1 0 0
    outer loop
      vertex 9 7 0
      vertex 9 6 0.99
      vertex 9 6 0
    endloop
  endfacet
  facet normal -1 0 0
    outer loop
      vertex 10 6 0
      vertex 10 7 0.99
      vertex 10 7 0
    endloop
  endfacet
  facet normal -1 -0 0
    outer loop
      vertex 10 7 0.99
      vertex 10 6 0
      vertex 10 6 0.99
    endloop
  endfacet
  facet normal 0 -1 0
    outer loop
      vertex 9 7 0
      vertex 10 7 0.99
      vertex 9 7 0.99
    endloop
  endfacet
  facet normal 0 -1 -0
    outer loop
      vertex 10 7 0.99
      vertex 9 7 0
      vertex 10 7 0
    endloop
  endfacet
  facet normal 0 1 -0
    outer loop
      vertex 10 6 0
      vertex 9 6 0.99
      vertex 10 6 0.99
    endloop
  endfacet
  facet normal 0 1 0
    outer loop
      vertex 9 6 0.99
      vertex 10 6 0
      vertex 9 6 0
    endloop
  endfacet
  facet normal 1 -0 0
    outer loop
      vertex 2 3 3
      vertex 2 9 0.99
      vertex 2 9 3
    endloop
  endfacet
  facet normal 1 0 0
    outer loop
      vertex 2 9 0.99
      vertex 2 3 3
      vertex 2 3 0.99
    endloop
  endfacet
  facet normal 1 -0 0
    outer loop
      vertex 2 10 3
      vertex 2 11 0.99
      vertex 2 11 3
    endloop
  endfacet
  facet normal 1 0 0
    outer loop
      vertex 2 11 0.99
      vertex 2 10 3
      vertex 2 10 0.99
    endloop
  endfacet
  facet normal -1 0 0
    outer loop
      vertex 13 3 0.99
      vertex 13 11 3
      vertex 13 11 0.99
    endloop
  endfacet
  facet normal -1 -0 0
    outer loop
      vertex 13 11 3
      vertex 13 3 0.99
      vertex 13 3 3
    endloop
  endfacet
  facet normal 0 -1 0
    outer loop
      vertex 2 11 0.99
      vertex 13 11 3
      vertex 2 11 3
    endloop
  endfacet
  facet normal 0 -1 -0
    outer loop
      vertex 13 11 3
      vertex 2 11 0.99
      vertex 13 11 0.99
    endloop
  endfacet
  facet normal -0 0 1
    outer loop
      vertex 1.51 10 0.99
      vertex 2 9 0.99
      vertex 2 10 0.99
    endloop
  endfacet
  facet normal 0 0 1
    outer loop
      vertex 2 9 0.99
      vertex 1.51 10 0.99
      vertex 1.51 9 0.99
    endloop
  endfacet
  facet normal 0 0 1
    outer loop
      vertex 13 11 0.99
      vertex 10 7 0.99
      vertex 13 3 0.99
    endloop
  endfacet
  facet normal 0 0 1
    outer loop
      vertex 13 11 0.99
      vertex 9 7 0.99
      vertex 10 7 0.99
    endloop
  endfacet
  facet normal 0 0 1
    outer loop
      vertex 9 7 0.99
      vertex 5 7 0.99
      vertex 9 6 0.99
    endloop
  endfacet
  facet normal -0 0 1
    outer loop
      vertex 2 11 0.99
      vertex 9 7 0.99
      vertex 13 11 0.99
    endloop
  endfacet
  facet normal 0 0 1
    outer loop
      vertex 9 7 0.99
      vertex 2 11 0.99
      vertex 5 7 0.99
    endloop
  endfacet
  facet normal 0 0 1
    outer loop
      vertex 5 7 0.99
      vertex 2 10 0.99
      vertex 4 7 0.99
    endloop
  endfacet
  facet normal -0 0 1
    outer loop
      vertex 2 10 0.99
      vertex 5 7 0.99
      vertex 2 11 0.99
    endloop
  endfacet
  facet normal -0 0 1
    outer loop
      vertex 10 6 0.99
      vertex 13 3 0.99
      vertex 10 7 0.99
    endloop
  endfacet
  facet normal -0 0 1
    outer loop
      vertex 9 6 0.99
      vertex 13 3 0.99
      vertex 10 6 0.99
    endloop
  endfacet
  facet normal 0 0 1
    outer loop
      vertex 5 6 0.99
      vertex 9 6 0.99
      vertex 5 7 0.99
    endloop
  endfacet
  facet normal 0 0 1
    outer loop
      vertex 2 3 0.99
      vertex 9 6 0.99
      vertex 5 6 0.99
    endloop
  endfacet
  facet normal 0 0 1
    outer loop
      vertex 2 3 0.99
      vertex 5 6 0.99
      vertex 4 6 0.99
    endloop
  endfacet
  facet normal -0 0 1
    outer loop
      vertex 2 9 0.99
      vertex 4 7 0.99
      vertex 2 10 0.99
    endloop
  endfacet
  facet normal 0 0 1
    outer loop
      vertex 4 7 0.99
      vertex 2 9 0.99
      vertex 4 6 0.99
    endloop
  endfacet
  facet normal 0 0 1
    outer loop
      vertex 9 6 0.99
      vertex 2 3 0.99
      vertex 13 3 0.99
    endloop
  endfacet
  facet normal 0 0 1
    outer loop
      vertex 2 3 0.99
      vertex 4 6 0.99
      vertex 2 9 0.99
    endloop
  endfacet
  facet normal 0 1 -0
    outer loop
      vertex 13 3 0.99
      vertex 2 3 3
      vertex 13 3 3
    endloop
  endfacet
  facet normal 0 1 0
    outer loop
      vertex 2 3 3
      vertex 13 3 0.99
      vertex 2 3 0.99
    endloop
  endfacet
  facet normal 1 -0 0
    outer loop
      vertex 1.51 9 3
      vertex 1.51 10 0.99
      vertex 1.51 10 3
    endloop
  endfacet
  facet normal 1 0 0
    outer loop
      vertex 1.51 10 0.99
      vertex 1.51 9 3
      vertex 1.51 9 0.99
    endloop
  endfacet
  facet normal 0 -1 0
    outer loop
      vertex 1.51 10 0.99
      vertex 2 10 3
      vertex 1.51 10 3
    endloop
  endfacet
  facet normal 0 -1 -0
    outer loop
      vertex 2 10 3
      vertex 1.51 10 0.99
      vertex 2 10 0.99
    endloop
  endfacet
  facet normal 0 1 -0
    outer loop
      vertex 2 9 0.99
      vertex 1.51 9 3
      vertex 2 9 3
    endloop
  endfacet
  facet normal 0 1 0
    outer loop
      vertex 1.51 9 3
      vertex 2 9 0.99
      vertex 1.51 9 0.99
    endloop
  endfacet
  facet normal -1 0 0
    outer loop
      vertex 0 0 0
      vertex 0 20 3
      vertex 0 20 0
    endloop
  endfacet
  facet normal -1 -0 0
    outer loop
      vertex 0 20 3
      vertex 0 0 0
      vertex 0 0 3
    endloop
  endfacet
  facet normal 0 0 1
    outer loop
      vertex 2 9 3
      vertex 1.51 9 3
      vertex 2 3 3
    endloop
  endfacet
  facet normal 0 0 1
    outer loop
      vertex 15 20 3
      vertex 13 11 3
      vertex 15 0 3
    endloop
  endfacet
  facet normal 0 0 1
    outer loop
      vertex 15 20 3
      vertex 8 18 3
      vertex 13 11 3
    endloop
  endfacet
  facet normal 0 0 1
    outer loop
      vertex 15 20 3
      vertex 7 18 3
      vertex 8 18 3
    endloop
  endfacet
  facet normal 0 0 1
    outer loop
      vertex 7 18 3
      vertex 3 18 3
      vertex 7 13 3
    endloop
  endfacet
  facet normal -0 0 1
    outer loop
      vertex 0 20 3
      vertex 7 18 3
      vertex 15 20 3
    endloop
  endfacet
  facet normal 0 0 1
    outer loop
      vertex 7 18 3
      vertex 0 20 3
      vertex 3 18 3
    endloop
  endfacet
  facet normal 0 0 1
    outer loop
      vertex 0 20 3
      vertex 2 13 3
      vertex 2 18 3
    endloop
  endfacet
  facet normal 0 -0 1
    outer loop
      vertex 1.51 10 3
      vertex 2 13 3
      vertex 0 20 3
    endloop
  endfacet
  facet normal 0 0 1
    outer loop
      vertex 2 11 3
      vertex 1.51 10 3
      vertex 2 10 3
    endloop
  endfacet
  facet normal 0 0 1
    outer loop
      vertex 0 0 3
      vertex 1.51 10 3
      vertex 0 20 3
    endloop
  endfacet
  facet normal 0 0 1
    outer loop
      vertex 2 13 3
      vertex 1.51 10 3
      vertex 2 11 3
    endloop
  endfacet
  facet normal 0 0 1
    outer loop
      vertex 3 18 3
      vertex 0 20 3
      vertex 2 18 3
    endloop
  endfacet
  facet normal -0 0 1
    outer loop
      vertex 13 3 3
      vertex 15 0 3
      vertex 13 11 3
    endloop
  endfacet
  facet normal -0 0 1
    outer loop
      vertex 2 3 3
      vertex 15 0 3
      vertex 13 3 3
    endloop
  endfacet
  facet normal 0 0 1
    outer loop
      vertex 1.51 10 3
      vertex 0 0 3
      vertex 1.51 9 3
    endloop
  endfacet
  facet normal 0 0 1
    outer loop
      vertex 2 3 3
      vertex 0 0 3
      vertex 15 0 3
    endloop
  endfacet
  facet normal 0 0 1
    outer loop
      vertex 1.51 9 3
      vertex 0 0 3
      vertex 2 3 3
    endloop
  endfacet
  facet normal -0 0 1
    outer loop
      vertex 8 13 3
      vertex 13 11 3
      vertex 8 18 3
    endloop
  endfacet
  facet normal -0 0 1
    outer loop
      vertex 7 13 3
      vertex 13 11 3
      vertex 8 13 3
    endloop
  endfacet
  facet normal 0 0 1
    outer loop
      vertex 3 13 3
      vertex 7 13 3
      vertex 3 18 3
    endloop
  endfacet
  facet normal 0 0 1
    outer loop
      vertex 2 11 3
      vertex 7 13 3
      vertex 3 13 3
    endloop
  endfacet
  facet normal 0 0 1
    outer loop
      vertex 2 11 3
      vertex 3 13 3
      vertex 2 13 3
    endloop
  endfacet
  facet normal 0 0 1
    outer loop
      vertex 7 13 3
      vertex 2 11 3
      vertex 13 11 3
    endloop
  endfacet
  facet normal 1 -0 0
    outer loop
      vertex 15 0 3
      vertex 15 20 0
      vertex 15 20 3
    endloop
  endfacet
  facet normal 1 0 0
    outer loop
      vertex 15 20 0
      vertex 15 0 3
      vertex 15 0 0
    endloop
  endfacet
  facet normal 0 0 -1
    outer loop
      vertex 10 7 0
      vertex 15 0 0
      vertex 10 6 0
    endloop
  endfacet
  facet normal 0 0 -1
    outer loop
      vertex 15 0 0
      vertex 9 6 0
      vertex 10 6 0
    endloop
  endfacet
  facet normal 0 0 -1
    outer loop
      vertex 5 7 0
      vertex 9 7 0
      vertex 9 6 0
    endloop
  endfacet
  facet normal 0 -0 -1
    outer loop
      vertex 7 13 0
      vertex 9 7 0
      vertex 5 7 0
    endloop
  endfacet
  facet normal 0 0 -1
    outer loop
      vertex 9 7 0
      vertex 7 13 0
      vertex 8 13 0
    endloop
  endfacet
  facet normal 0 0 -1
    outer loop
      vertex 5 7 0
      vertex 9 6 0
      vertex 5 6 0
    endloop
  endfacet
  facet normal 0 0 -1
    outer loop
      vertex 0 0 0
      vertex 9 6 0
      vertex 15 0 0
    endloop
  endfacet
  facet normal -0 0 -1
    outer loop
      vertex 9 6 0
      vertex 0 0 0
      vertex 5 6 0
    endloop
  endfacet
  facet normal 0 0 -1
    outer loop
      vertex 0 0 0
      vertex 4 7 0
      vertex 4 6 0
    endloop
  endfacet
  facet normal 0 0 -1
    outer loop
      vertex 4 7 0
      vertex 2 13 0
      vertex 3 13 0
    endloop
  endfacet
  facet normal 0 0 -1
    outer loop
      vertex 0 20 0
      vertex 2 13 0
      vertex 0 0 0
    endloop
  endfacet
  facet normal -0 0 -1
    outer loop
      vertex 4 7 0
      vertex 0 0 0
      vertex 2 13 0
    endloop
  endfacet
  facet normal -0 0 -1
    outer loop
      vertex 5 6 0
      vertex 0 0 0
      vertex 4 6 0
    endloop
  endfacet
  facet normal 0 0 -1
    outer loop
      vertex 15 0 0
      vertex 10 7 0
      vertex 15 20 0
    endloop
  endfacet
  facet normal 0 0 -1
    outer loop
      vertex 8 13 0
      vertex 10 7 0
      vertex 9 7 0
    endloop
  endfacet
  facet normal 0 0 -1
    outer loop
      vertex 10 7 0
      vertex 8 13 0
      vertex 15 20 0
    endloop
  endfacet
  facet normal 0 0 -1
    outer loop
      vertex 8 18 0
      vertex 15 20 0
      vertex 8 13 0
    endloop
  endfacet
  facet normal 0 0 -1
    outer loop
      vertex 7 18 0
      vertex 15 20 0
      vertex 8 18 0
    endloop
  endfacet
  facet normal 0 0 -1
    outer loop
      vertex 3 13 0
      vertex 7 13 0
      vertex 5 7 0
    endloop
  endfacet
  facet normal 0 0 -1
    outer loop
      vertex 3 13 0
      vertex 5 7 0
      vertex 4 7 0
    endloop
  endfacet
  facet normal 0 0 -1
    outer loop
      vertex 7 13 0
      vertex 3 13 0
      vertex 7 18 0
    endloop
  endfacet
  facet normal 0 0 -1
    outer loop
      vertex 3 18 0
      vertex 7 18 0
      vertex 3 13 0
    endloop
  endfacet
  facet normal 0 0 -1
    outer loop
      vertex 0 20 0
      vertex 7 18 0
      vertex 3 18 0
    endloop
  endfacet
  facet normal 0 0 -1
    outer loop
      vertex 0 20 0
      vertex 3 18 0
      vertex 2 18 0
    endloop
  endfacet
  facet normal 0 0 -1
    outer loop
      vertex 7 18 0
      vertex 0 20 0
      vertex 15 20 0
    endloop
  endfacet
  facet normal 0 0 -1
    outer loop
      vertex 2 13 0
      vertex 0 20 0
      vertex 2 18 0
    endloop
  endfacet
  facet normal 0 -1 0
    outer loop
      vertex 0 0 0
      vertex 15 0 3
      vertex 0 0 3
    endloop
  endfacet
  facet normal 0 -1 -0
    outer loop
      vertex 15 0 3
      vertex 0 0 0
      vertex 15 0 0
    endloop
  endfacet
  facet normal 0 1 -0
    outer loop
      vertex 15 20 0
      vertex 0 20 3
      vertex 15 20 3
    endloop
  endfacet
  facet normal 0 1 0
    outer loop
      vertex 0 20 3
      vertex 15 20 0
      vertex 0 20 0
    endloop
  endfacet
endsolid OpenSCAD_Model
