solid OpenSCAD_Model
  facet normal 1 -0 0
    outer loop
      vertex 3 3 50
      vertex 3 26.5 4
      vertex 3 26.5 50
    endloop
  endfacet
  facet normal 1 0 0
    outer loop
      vertex 3 26.5 4
      vertex 3 3 50
      vertex 3 3 4
    endloop
  endfacet
  facet normal -1 0 0
    outer loop
      vertex 105 3 4
      vertex 105 26.5 50
      vertex 105 26.5 4
    endloop
  endfacet
  facet normal -1 -0 0
    outer loop
      vertex 105 26.5 50
      vertex 105 3 4
      vertex 105 3 50
    endloop
  endfacet
  facet normal 0 -1 0
    outer loop
      vertex 3 26.5 4
      vertex 105 26.5 50
      vertex 3 26.5 50
    endloop
  endfacet
  facet normal 0 -1 -0
    outer loop
      vertex 105 26.5 50
      vertex 3 26.5 4
      vertex 105 26.5 4
    endloop
  endfacet
  facet normal -0 0 1
    outer loop
      vertex 3 26.5 4
      vertex 105 3 4
      vertex 105 26.5 4
    endloop
  endfacet
  facet normal 0 0 1
    outer loop
      vertex 105 3 4
      vertex 3 26.5 4
      vertex 3 3 4
    endloop
  endfacet
  facet normal 0 1 -0
    outer loop
      vertex 105 3 4
      vertex 3 3 50
      vertex 105 3 50
    endloop
  endfacet
  facet normal 0 1 0
    outer loop
      vertex 3 3 50
      vertex 105 3 4
      vertex 3 3 4
    endloop
  endfacet
  facet normal 1 -0 0
    outer loop
      vertex 3 29.5 50
      vertex 3 59.5 32
      vertex 3 59.5 50
    endloop
  endfacet
  facet normal 1 0 0
    outer loop
      vertex 3 59.5 32
      vertex 3 29.5 50
      vertex 3 29.5 32
    endloop
  endfacet
  facet normal -1 0 0
    outer loop
      vertex 105 29.5 32
      vertex 105 59.5 50
      vertex 105 59.5 32
    endloop
  endfacet
  facet normal -1 -0 0
    outer loop
      vertex 105 59.5 50
      vertex 105 29.5 32
      vertex 105 29.5 50
    endloop
  endfacet
  facet normal 0 -1 0
    outer loop
      vertex 3 59.5 32
      vertex 105 59.5 50
      vertex 3 59.5 50
    endloop
  endfacet
  facet normal 0 -1 -0
    outer loop
      vertex 105 59.5 50
      vertex 3 59.5 32
      vertex 105 59.5 32
    endloop
  endfacet
  facet normal -0 0 1
    outer loop
      vertex 3 59.5 32
      vertex 105 29.5 32
      vertex 105 59.5 32
    endloop
  endfacet
  facet normal 0 0 1
    outer loop
      vertex 105 29.5 32
      vertex 3 59.5 32
      vertex 3 29.5 32
    endloop
  endfacet
  facet normal 0 1 -0
    outer loop
      vertex 105 29.5 32
      vertex 3 29.5 50
      vertex 105 29.5 50
    endloop
  endfacet
  facet normal 0 1 0
    outer loop
      vertex 3 29.5 50
      vertex 105 29.5 32
      vertex 3 29.5 32
    endloop
  endfacet
  facet normal 1 -0 0
    outer loop
      vertex 3 62.5 50
      vertex 3 106 14
      vertex 3 106 50
    endloop
  endfacet
  facet normal 1 0 0
    outer loop
      vertex 3 106 14
      vertex 3 62.5 50
      vertex 3 62.5 14
    endloop
  endfacet
  facet normal -1 0 0
    outer loop
      vertex 105 62.5 14
      vertex 105 106 50
      vertex 105 106 14
    endloop
  endfacet
  facet normal -1 -0 0
    outer loop
      vertex 105 106 50
      vertex 105 62.5 14
      vertex 105 62.5 50
    endloop
  endfacet
  facet normal 0 -1 0
    outer loop
      vertex 3 106 14
      vertex 105 106 50
      vertex 3 106 50
    endloop
  endfacet
  facet normal 0 -1 -0
    outer loop
      vertex 105 106 50
      vertex 3 106 14
      vertex 105 106 14
    endloop
  endfacet
  facet normal -0 0 1
    outer loop
      vertex 3 106 14
      vertex 105 62.5 14
      vertex 105 106 14
    endloop
  endfacet
  facet normal 0 0 1
    outer loop
      vertex 105 62.5 14
      vertex 3 106 14
      vertex 3 62.5 14
    endloop
  endfacet
  facet normal 0 1 -0
    outer loop
      vertex 105 62.5 14
      vertex 3 62.5 50
      vertex 105 62.5 50
    endloop
  endfacet
  facet normal 0 1 0
    outer loop
      vertex 3 62.5 50
      vertex 105 62.5 14
      vertex 3 62.5 14
    endloop
  endfacet
  facet normal 1 -0 0
    outer loop
      vertex 3 109 50
      vertex 3 135 32
      vertex 3 135 50
    endloop
  endfacet
  facet normal 1 0 0
    outer loop
      vertex 3 135 32
      vertex 3 109 50
      vertex 3 109 32
    endloop
  endfacet
  facet normal -1 0 0
    outer loop
      vertex 105 109 32
      vertex 105 135 50
      vertex 105 135 32
    endloop
  endfacet
  facet normal -1 -0 0
    outer loop
      vertex 105 135 50
      vertex 105 109 32
      vertex 105 109 50
    endloop
  endfacet
  facet normal -0 0 1
    outer loop
      vertex 3 135 32
      vertex 105 109 32
      vertex 105 135 32
    endloop
  endfacet
  facet normal 0 0 1
    outer loop
      vertex 105 109 32
      vertex 3 135 32
      vertex 3 109 32
    endloop
  endfacet
  facet normal 0 1 -0
    outer loop
      vertex 105 109 32
      vertex 3 109 50
      vertex 105 109 50
    endloop
  endfacet
  facet normal 0 1 0
    outer loop
      vertex 3 109 50
      vertex 105 109 32
      vertex 3 109 32
    endloop
  endfacet
  facet normal 0 -1 0
    outer loop
      vertex 3 135 32
      vertex 105 135 50
      vertex 3 135 50
    endloop
  endfacet
  facet normal 0 -1 -0
    outer loop
      vertex 105 135 50
      vertex 3 135 32
      vertex 105 135 32
    endloop
  endfacet
  facet normal 1 -0 0
    outer loop
      vertex 3 138 50
      vertex 3 168 32
      vertex 3 168 50
    endloop
  endfacet
  facet normal 1 0 0
    outer loop
      vertex 3 168 32
      vertex 3 138 50
      vertex 3 138 32
    endloop
  endfacet
  facet normal -1 0 0
    outer loop
      vertex 105 138 32
      vertex 105 168 50
      vertex 105 168 32
    endloop
  endfacet
  facet normal -1 -0 0
    outer loop
      vertex 105 168 50
      vertex 105 138 32
      vertex 105 138 50
    endloop
  endfacet
  facet normal -0 0 1
    outer loop
      vertex 3 168 32
      vertex 105 138 32
      vertex 105 168 32
    endloop
  endfacet
  facet normal 0 0 1
    outer loop
      vertex 105 138 32
      vertex 3 168 32
      vertex 3 138 32
    endloop
  endfacet
  facet normal 0 1 -0
    outer loop
      vertex 105 138 32
      vertex 3 138 50
      vertex 105 138 50
    endloop
  endfacet
  facet normal 0 1 0
    outer loop
      vertex 3 138 50
      vertex 105 138 32
      vertex 3 138 32
    endloop
  endfacet
  facet normal 0 -1 0
    outer loop
      vertex 3 168 32
      vertex 105 168 50
      vertex 3 168 50
    endloop
  endfacet
  facet normal 0 -1 -0
    outer loop
      vertex 105 168 50
      vertex 3 168 32
      vertex 105 168 32
    endloop
  endfacet
  facet normal 1 -0 0
    outer loop
      vertex 108 3 50
      vertex 108 36.5 4
      vertex 108 36.5 50
    endloop
  endfacet
  facet normal 1 0 0
    outer loop
      vertex 108 36.5 4
      vertex 108 3 50
      vertex 108 3 4
    endloop
  endfacet
  facet normal -1 0 0
    outer loop
      vertex 200 3 4
      vertex 200 36.5 50
      vertex 200 36.5 4
    endloop
  endfacet
  facet normal -1 -0 0
    outer loop
      vertex 200 36.5 50
      vertex 200 3 4
      vertex 200 3 50
    endloop
  endfacet
  facet normal 0 -1 0
    outer loop
      vertex 108 36.5 4
      vertex 200 36.5 50
      vertex 108 36.5 50
    endloop
  endfacet
  facet normal 0 -1 -0
    outer loop
      vertex 200 36.5 50
      vertex 108 36.5 4
      vertex 200 36.5 4
    endloop
  endfacet
  facet normal -0 0 1
    outer loop
      vertex 108 36.5 4
      vertex 200 3 4
      vertex 200 36.5 4
    endloop
  endfacet
  facet normal 0 0 1
    outer loop
      vertex 200 3 4
      vertex 108 36.5 4
      vertex 108 3 4
    endloop
  endfacet
  facet normal 0 1 -0
    outer loop
      vertex 200 3 4
      vertex 108 3 50
      vertex 200 3 50
    endloop
  endfacet
  facet normal 0 1 0
    outer loop
      vertex 108 3 50
      vertex 200 3 4
      vertex 108 3 4
    endloop
  endfacet
  facet normal 1 -0 0
    outer loop
      vertex 108 43.5 50
      vertex 108 95 2
      vertex 108 95 50
    endloop
  endfacet
  facet normal 1 0 0
    outer loop
      vertex 108 95 2
      vertex 108 43.5 50
      vertex 108 43.5 2
    endloop
  endfacet
  facet normal -1 0 0
    outer loop
      vertex 200 43.5 2
      vertex 200 95 50
      vertex 200 95 2
    endloop
  endfacet
  facet normal -1 -0 0
    outer loop
      vertex 200 95 50
      vertex 200 43.5 2
      vertex 200 43.5 50
    endloop
  endfacet
  facet normal -0 0 1
    outer loop
      vertex 108 95 2
      vertex 200 43.5 2
      vertex 200 95 2
    endloop
  endfacet
  facet normal 0 0 1
    outer loop
      vertex 200 43.5 2
      vertex 108 95 2
      vertex 108 43.5 2
    endloop
  endfacet
  facet normal 0 1 -0
    outer loop
      vertex 200 43.5 2
      vertex 108 43.5 50
      vertex 200 43.5 50
    endloop
  endfacet
  facet normal 0 1 0
    outer loop
      vertex 108 43.5 50
      vertex 200 43.5 2
      vertex 108 43.5 2
    endloop
  endfacet
  facet normal 0 -1 0
    outer loop
      vertex 108 95 2
      vertex 200 95 50
      vertex 108 95 50
    endloop
  endfacet
  facet normal 0 -1 -0
    outer loop
      vertex 200 95 50
      vertex 108 95 2
      vertex 200 95 2
    endloop
  endfacet
  facet normal 1 -0 0
    outer loop
      vertex 108 102 50
      vertex 108 129.5 12
      vertex 108 129.5 50
    endloop
  endfacet
  facet normal 1 0 0
    outer loop
      vertex 108 129.5 12
      vertex 108 102 50
      vertex 108 102 12
    endloop
  endfacet
  facet normal -1 0 0
    outer loop
      vertex 200 102 12
      vertex 200 129.5 50
      vertex 200 129.5 12
    endloop
  endfacet
  facet normal -1 -0 0
    outer loop
      vertex 200 129.5 50
      vertex 200 102 12
      vertex 200 102 50
    endloop
  endfacet
  facet normal 0 -1 0
    outer loop
      vertex 108 129.5 12
      vertex 200 129.5 50
      vertex 108 129.5 50
    endloop
  endfacet
  facet normal 0 -1 -0
    outer loop
      vertex 200 129.5 50
      vertex 108 129.5 12
      vertex 200 129.5 12
    endloop
  endfacet
  facet normal -0 0 1
    outer loop
      vertex 108 129.5 12
      vertex 200 102 12
      vertex 200 129.5 12
    endloop
  endfacet
  facet normal 0 0 1
    outer loop
      vertex 200 102 12
      vertex 108 129.5 12
      vertex 108 102 12
    endloop
  endfacet
  facet normal 0 1 -0
    outer loop
      vertex 200 102 12
      vertex 108 102 50
      vertex 200 102 50
    endloop
  endfacet
  facet normal 0 1 0
    outer loop
      vertex 108 102 50
      vertex 200 102 12
      vertex 108 102 12
    endloop
  endfacet
  facet normal 1 -0 0
    outer loop
      vertex 108 136.5 50
      vertex 108 168 12
      vertex 108 168 50
    endloop
  endfacet
  facet normal 1 0 0
    outer loop
      vertex 108 168 12
      vertex 108 136.5 50
      vertex 108 136.5 12
    endloop
  endfacet
  facet normal -1 0 0
    outer loop
      vertex 200 136.5 12
      vertex 200 168 50
      vertex 200 168 12
    endloop
  endfacet
  facet normal -1 -0 0
    outer loop
      vertex 200 168 50
      vertex 200 136.5 12
      vertex 200 136.5 50
    endloop
  endfacet
  facet normal 0 -1 0
    outer loop
      vertex 108 168 12
      vertex 200 168 50
      vertex 108 168 50
    endloop
  endfacet
  facet normal 0 -1 -0
    outer loop
      vertex 200 168 50
      vertex 108 168 12
      vertex 200 168 12
    endloop
  endfacet
  facet normal -0 0 1
    outer loop
      vertex 108 168 12
      vertex 200 136.5 12
      vertex 200 168 12
    endloop
  endfacet
  facet normal 0 0 1
    outer loop
      vertex 200 136.5 12
      vertex 108 168 12
      vertex 108 136.5 12
    endloop
  endfacet
  facet normal 0 1 -0
    outer loop
      vertex 200 136.5 12
      vertex 108 136.5 50
      vertex 200 136.5 50
    endloop
  endfacet
  facet normal 0 1 0
    outer loop
      vertex 108 136.5 50
      vertex 200 136.5 12
      vertex 108 136.5 12
    endloop
  endfacet
  facet normal -1 0 0
    outer loop
      vertex 0 0 0
      vertex 0 171 50
      vertex 0 171 0
    endloop
  endfacet
  facet normal -1 -0 0
    outer loop
      vertex 0 171 50
      vertex 0 0 0
      vertex 0 0 50
    endloop
  endfacet
  facet normal -0 0 1
    outer loop
      vertex 3 29.5 50
      vertex 105 26.5 50
      vertex 105 29.5 50
    endloop
  endfacet
  facet normal 0 0 1
    outer loop
      vertex 105 26.5 50
      vertex 3 29.5 50
      vertex 3 26.5 50
    endloop
  endfacet
  facet normal -0 0 1
    outer loop
      vertex 3 62.5 50
      vertex 105 59.5 50
      vertex 105 62.5 50
    endloop
  endfacet
  facet normal 0 0 1
    outer loop
      vertex 105 59.5 50
      vertex 3 62.5 50
      vertex 3 59.5 50
    endloop
  endfacet
  facet normal -0 0 1
    outer loop
      vertex 3 109 50
      vertex 105 106 50
      vertex 105 109 50
    endloop
  endfacet
  facet normal 0 0 1
    outer loop
      vertex 105 106 50
      vertex 3 109 50
      vertex 3 106 50
    endloop
  endfacet
  facet normal -0 0 1
    outer loop
      vertex 3 138 50
      vertex 105 135 50
      vertex 105 138 50
    endloop
  endfacet
  facet normal 0 0 1
    outer loop
      vertex 105 135 50
      vertex 3 138 50
      vertex 3 135 50
    endloop
  endfacet
  facet normal -0 0 1
    outer loop
      vertex 108 43.5 50
      vertex 200 36.5 50
      vertex 200 43.5 50
    endloop
  endfacet
  facet normal 0 0 1
    outer loop
      vertex 200 36.5 50
      vertex 108 43.5 50
      vertex 108 36.5 50
    endloop
  endfacet
  facet normal -0 0 1
    outer loop
      vertex 108 102 50
      vertex 200 95 50
      vertex 200 102 50
    endloop
  endfacet
  facet normal 0 0 1
    outer loop
      vertex 200 95 50
      vertex 108 102 50
      vertex 108 95 50
    endloop
  endfacet
  facet normal -0 0 1
    outer loop
      vertex 108 136.5 50
      vertex 200 129.5 50
      vertex 200 136.5 50
    endloop
  endfacet
  facet normal 0 0 1
    outer loop
      vertex 200 129.5 50
      vertex 108 136.5 50
      vertex 108 129.5 50
    endloop
  endfacet
  facet normal 0 0 1
    outer loop
      vertex 200 136.5 50
      vertex 204 171 50
      vertex 200 168 50
    endloop
  endfacet
  facet normal 0 0 1
    outer loop
      vertex 204 171 50
      vertex 108 168 50
      vertex 200 168 50
    endloop
  endfacet
  facet normal -0 0 1
    outer loop
      vertex 105 138 50
      vertex 108 136.5 50
      vertex 108 168 50
    endloop
  endfacet
  facet normal 0 0 1
    outer loop
      vertex 105 135 50
      vertex 108 136.5 50
      vertex 105 138 50
    endloop
  endfacet
  facet normal 0 0 1
    outer loop
      vertex 105 109 50
      vertex 108 129.5 50
      vertex 105 135 50
    endloop
  endfacet
  facet normal 0 0 1
    outer loop
      vertex 108 129.5 50
      vertex 105 109 50
      vertex 108 102 50
    endloop
  endfacet
  facet normal 0 0 1
    outer loop
      vertex 105 62.5 50
      vertex 108 95 50
      vertex 105 106 50
    endloop
  endfacet
  facet normal 0 0 1
    outer loop
      vertex 108 95 50
      vertex 105 62.5 50
      vertex 108 43.5 50
    endloop
  endfacet
  facet normal 0 0 1
    outer loop
      vertex 105 138 50
      vertex 108 168 50
      vertex 105 168 50
    endloop
  endfacet
  facet normal 0 0 1
    outer loop
      vertex 204 171 50
      vertex 105 168 50
      vertex 108 168 50
    endloop
  endfacet
  facet normal -0 0 1
    outer loop
      vertex 0 171 50
      vertex 105 168 50
      vertex 204 171 50
    endloop
  endfacet
  facet normal 0 0 1
    outer loop
      vertex 0 171 50
      vertex 3 138 50
      vertex 3 168 50
    endloop
  endfacet
  facet normal 0 0 1
    outer loop
      vertex 3 138 50
      vertex 0 171 50
      vertex 3 135 50
    endloop
  endfacet
  facet normal 0 0 1
    outer loop
      vertex 3 135 50
      vertex 0 171 50
      vertex 3 109 50
    endloop
  endfacet
  facet normal 0 0 1
    outer loop
      vertex 3 109 50
      vertex 0 171 50
      vertex 3 106 50
    endloop
  endfacet
  facet normal 0 0 1
    outer loop
      vertex 3 106 50
      vertex 0 171 50
      vertex 3 62.5 50
    endloop
  endfacet
  facet normal 0 0 1
    outer loop
      vertex 0 0 50
      vertex 3 62.5 50
      vertex 0 171 50
    endloop
  endfacet
  facet normal 0 0 1
    outer loop
      vertex 3 62.5 50
      vertex 0 0 50
      vertex 3 59.5 50
    endloop
  endfacet
  facet normal 0 0 1
    outer loop
      vertex 3 59.5 50
      vertex 0 0 50
      vertex 3 29.5 50
    endloop
  endfacet
  facet normal 0 0 1
    outer loop
      vertex 3 29.5 50
      vertex 0 0 50
      vertex 3 26.5 50
    endloop
  endfacet
  facet normal 0 0 1
    outer loop
      vertex 105 168 50
      vertex 0 171 50
      vertex 3 168 50
    endloop
  endfacet
  facet normal 0 0 1
    outer loop
      vertex 200 129.5 50
      vertex 204 171 50
      vertex 200 136.5 50
    endloop
  endfacet
  facet normal 0 0 1
    outer loop
      vertex 200 102 50
      vertex 204 171 50
      vertex 200 129.5 50
    endloop
  endfacet
  facet normal 0 0 1
    outer loop
      vertex 200 95 50
      vertex 204 171 50
      vertex 200 102 50
    endloop
  endfacet
  facet normal 0 0 1
    outer loop
      vertex 204 171 50
      vertex 200 95 50
      vertex 204 0 50
    endloop
  endfacet
  facet normal -0 0 1
    outer loop
      vertex 200 43.5 50
      vertex 204 0 50
      vertex 200 95 50
    endloop
  endfacet
  facet normal -0 0 1
    outer loop
      vertex 200 36.5 50
      vertex 204 0 50
      vertex 200 43.5 50
    endloop
  endfacet
  facet normal -0 0 1
    outer loop
      vertex 200 3 50
      vertex 204 0 50
      vertex 200 36.5 50
    endloop
  endfacet
  facet normal -0 0 1
    outer loop
      vertex 108 3 50
      vertex 204 0 50
      vertex 200 3 50
    endloop
  endfacet
  facet normal 0 0 1
    outer loop
      vertex 108 136.5 50
      vertex 105 135 50
      vertex 108 129.5 50
    endloop
  endfacet
  facet normal -0 0 1
    outer loop
      vertex 105 106 50
      vertex 108 102 50
      vertex 105 109 50
    endloop
  endfacet
  facet normal 0 0 1
    outer loop
      vertex 108 102 50
      vertex 105 106 50
      vertex 108 95 50
    endloop
  endfacet
  facet normal -0 0 1
    outer loop
      vertex 105 59.5 50
      vertex 108 43.5 50
      vertex 105 62.5 50
    endloop
  endfacet
  facet normal 0 0 1
    outer loop
      vertex 105 29.5 50
      vertex 108 43.5 50
      vertex 105 59.5 50
    endloop
  endfacet
  facet normal 0 0 1
    outer loop
      vertex 108 43.5 50
      vertex 105 29.5 50
      vertex 108 36.5 50
    endloop
  endfacet
  facet normal 0 0 1
    outer loop
      vertex 105 26.5 50
      vertex 108 36.5 50
      vertex 105 29.5 50
    endloop
  endfacet
  facet normal 0 0 1
    outer loop
      vertex 108 36.5 50
      vertex 105 26.5 50
      vertex 108 3 50
    endloop
  endfacet
  facet normal 0 0 1
    outer loop
      vertex 105 3 50
      vertex 108 3 50
      vertex 105 26.5 50
    endloop
  endfacet
  facet normal -0 0 1
    outer loop
      vertex 105 3 50
      vertex 204 0 50
      vertex 108 3 50
    endloop
  endfacet
  facet normal 0 0 1
    outer loop
      vertex 0 0 50
      vertex 105 3 50
      vertex 3 3 50
    endloop
  endfacet
  facet normal 0 0 1
    outer loop
      vertex 105 3 50
      vertex 0 0 50
      vertex 204 0 50
    endloop
  endfacet
  facet normal 0 0 1
    outer loop
      vertex 3 26.5 50
      vertex 0 0 50
      vertex 3 3 50
    endloop
  endfacet
  facet normal 1 -0 0
    outer loop
      vertex 204 0 50
      vertex 204 171 0
      vertex 204 171 50
    endloop
  endfacet
  facet normal 1 0 0
    outer loop
      vertex 204 171 0
      vertex 204 0 50
      vertex 204 0 0
    endloop
  endfacet
  facet normal 0 1 -0
    outer loop
      vertex 204 171 0
      vertex 0 171 50
      vertex 204 171 50
    endloop
  endfacet
  facet normal 0 1 0
    outer loop
      vertex 0 171 50
      vertex 204 171 0
      vertex 0 171 0
    endloop
  endfacet
  facet normal 0 0 -1
    outer loop
      vertex 0 0 0
      vertex 204 171 0
      vertex 204 0 0
    endloop
  endfacet
  facet normal -0 0 -1
    outer loop
      vertex 204 171 0
      vertex 0 0 0
      vertex 0 171 0
    endloop
  endfacet
  facet normal 0 -1 0
    outer loop
      vertex 0 0 0
      vertex 204 0 50
      vertex 0 0 50
    endloop
  endfacet
  facet normal 0 -1 -0
    outer loop
      vertex 204 0 50
      vertex 0 0 0
      vertex 204 0 0
    endloop
  endfacet
endsolid OpenSCAD_Model
