solid OpenSCAD_Model
  facet normal 1 -0 0
    outer loop
      vertex 1.5 6 42
      vertex 1.5 31 1
      vertex 1.5 31 42
    endloop
  endfacet
  facet normal 1 0 0
    outer loop
      vertex 1.5 31 1
      vertex 1.5 6 42
      vertex 1.5 6 1
    endloop
  endfacet
  facet normal -1 0 0
    outer loop
      vertex 102.5 6 1
      vertex 102.5 31 42
      vertex 102.5 31 1
    endloop
  endfacet
  facet normal -1 -0 0
    outer loop
      vertex 102.5 31 42
      vertex 102.5 6 1
      vertex 102.5 6 42
    endloop
  endfacet
  facet normal 0 -1 0
    outer loop
      vertex 1.5 31 42
      vertex 39.9233 31 41.3757
      vertex 39.8355 31 42
    endloop
  endfacet
  facet normal 0 -1 0
    outer loop
      vertex 1.5 31 42
      vertex 40.3473 31 38.3615
      vertex 39.9233 31 41.3757
    endloop
  endfacet
  facet normal 0 -1 0
    outer loop
      vertex 1.5 31 42
      vertex 40.7449 31 37.4469
      vertex 40.3473 31 38.3615
    endloop
  endfacet
  facet normal 0 -1 0
    outer loop
      vertex 1.5 31 42
      vertex 41.7525 31 35.6142
      vertex 40.7449 31 37.4469
    endloop
  endfacet
  facet normal 0 -1 0
    outer loop
      vertex 1.5 31 42
      vertex 42.155 31 34.8821
      vertex 41.7525 31 35.6142
    endloop
  endfacet
  facet normal 0 -1 0
    outer loop
      vertex 1.5 31 1
      vertex 42.155 31 34.8821
      vertex 1.5 31 42
    endloop
  endfacet
  facet normal 0 -1 -0
    outer loop
      vertex 42.155 31 34.8821
      vertex 1.5 31 1
      vertex 43.4076 31 33.5999
    endloop
  endfacet
  facet normal 0 -1 -0
    outer loop
      vertex 43.4076 31 33.5999
      vertex 1.5 31 1
      vertex 44.7831 31 32.1917
    endloop
  endfacet
  facet normal 0 -1 -0
    outer loop
      vertex 44.7831 31 32.1917
      vertex 1.5 31 1
      vertex 45.0947 31 31.971
    endloop
  endfacet
  facet normal 0 -1 -0
    outer loop
      vertex 45.0947 31 31.971
      vertex 1.5 31 1
      vertex 45.4579 31 31.7138
    endloop
  endfacet
  facet normal 0 -1 0
    outer loop
      vertex 1.5 31 1
      vertex 49.372 31 30.2542
      vertex 47.9385 31 30.587
    endloop
  endfacet
  facet normal 0 -1 -0
    outer loop
      vertex 50.6862 31 29.9491
      vertex 1.5 31 1
      vertex 53.3138 31 29.9491
    endloop
  endfacet
  facet normal 0 -1 -0
    outer loop
      vertex 49.372 31 30.2542
      vertex 1.5 31 1
      vertex 50.6862 31 29.9491
    endloop
  endfacet
  facet normal 0 -1 -0
    outer loop
      vertex 45.4579 31 31.7138
      vertex 1.5 31 1
      vertex 47.9385 31 30.587
    endloop
  endfacet
  facet normal 0 -1 0
    outer loop
      vertex 64.0767 31 41.3757
      vertex 102.5 31 42
      vertex 64.1645 31 42
    endloop
  endfacet
  facet normal 0 -1 0
    outer loop
      vertex 63.6527 31 38.3615
      vertex 102.5 31 42
      vertex 64.0767 31 41.3757
    endloop
  endfacet
  facet normal 0 -1 0
    outer loop
      vertex 63.2551 31 37.4469
      vertex 102.5 31 42
      vertex 63.6527 31 38.3615
    endloop
  endfacet
  facet normal 0 -1 0
    outer loop
      vertex 62.2475 31 35.6142
      vertex 102.5 31 42
      vertex 63.2551 31 37.4469
    endloop
  endfacet
  facet normal 0 -1 0
    outer loop
      vertex 61.845 31 34.8821
      vertex 102.5 31 42
      vertex 62.2475 31 35.6142
    endloop
  endfacet
  facet normal 0 -1 0
    outer loop
      vertex 102.5 31 1
      vertex 61.845 31 34.8821
      vertex 60.5924 31 33.5999
    endloop
  endfacet
  facet normal 0 -1 0
    outer loop
      vertex 102.5 31 1
      vertex 60.5924 31 33.5999
      vertex 59.2169 31 32.1917
    endloop
  endfacet
  facet normal 0 -1 0
    outer loop
      vertex 102.5 31 1
      vertex 59.2169 31 32.1917
      vertex 58.9053 31 31.971
    endloop
  endfacet
  facet normal 0 -1 0
    outer loop
      vertex 102.5 31 1
      vertex 58.9053 31 31.971
      vertex 58.5421 31 31.7138
    endloop
  endfacet
  facet normal 0 -1 0
    outer loop
      vertex 102.5 31 1
      vertex 58.5421 31 31.7138
      vertex 56.0615 31 30.587
    endloop
  endfacet
  facet normal 0 -1 0
    outer loop
      vertex 102.5 31 1
      vertex 54.628 31 30.2542
      vertex 53.3138 31 29.9491
    endloop
  endfacet
  facet normal 0 -1 0
    outer loop
      vertex 102.5 31 1
      vertex 53.3138 31 29.9491
      vertex 1.5 31 1
    endloop
  endfacet
  facet normal 0 -1 0
    outer loop
      vertex 54.628 31 30.2542
      vertex 102.5 31 1
      vertex 56.0615 31 30.587
    endloop
  endfacet
  facet normal 0 -1 0
    outer loop
      vertex 61.845 31 34.8821
      vertex 102.5 31 1
      vertex 102.5 31 42
    endloop
  endfacet
  facet normal -0 0 1
    outer loop
      vertex 1.5 31 1
      vertex 102.5 6 1
      vertex 102.5 31 1
    endloop
  endfacet
  facet normal 0 0 1
    outer loop
      vertex 102.5 6 1
      vertex 1.5 31 1
      vertex 1.5 6 1
    endloop
  endfacet
  facet normal 0 1 0
    outer loop
      vertex 102.5 6 42
      vertex 64.0767 6 41.3757
      vertex 64.1645 6 42
    endloop
  endfacet
  facet normal 0 1 0
    outer loop
      vertex 102.5 6 42
      vertex 63.6527 6 38.3615
      vertex 64.0767 6 41.3757
    endloop
  endfacet
  facet normal 0 1 0
    outer loop
      vertex 102.5 6 42
      vertex 63.2551 6 37.4469
      vertex 63.6527 6 38.3615
    endloop
  endfacet
  facet normal 0 1 0
    outer loop
      vertex 102.5 6 42
      vertex 62.2475 6 35.6142
      vertex 63.2551 6 37.4469
    endloop
  endfacet
  facet normal 0 1 0
    outer loop
      vertex 102.5 6 42
      vertex 61.845 6 34.8821
      vertex 62.2475 6 35.6142
    endloop
  endfacet
  facet normal 0 1 -0
    outer loop
      vertex 102.5 6 1
      vertex 61.845 6 34.8821
      vertex 102.5 6 42
    endloop
  endfacet
  facet normal 0 1 0
    outer loop
      vertex 61.845 6 34.8821
      vertex 102.5 6 1
      vertex 60.5924 6 33.5999
    endloop
  endfacet
  facet normal 0 1 0
    outer loop
      vertex 60.5924 6 33.5999
      vertex 102.5 6 1
      vertex 59.2169 6 32.1917
    endloop
  endfacet
  facet normal 0 1 0
    outer loop
      vertex 59.2169 6 32.1917
      vertex 102.5 6 1
      vertex 58.9053 6 31.971
    endloop
  endfacet
  facet normal 0 1 0
    outer loop
      vertex 58.9053 6 31.971
      vertex 102.5 6 1
      vertex 58.5421 6 31.7138
    endloop
  endfacet
  facet normal 0 1 0
    outer loop
      vertex 53.3138 6 29.9491
      vertex 102.5 6 1
      vertex 50.6862 6 29.9491
    endloop
  endfacet
  facet normal 0 1 0
    outer loop
      vertex 54.628 6 30.2542
      vertex 102.5 6 1
      vertex 53.3138 6 29.9491
    endloop
  endfacet
  facet normal 0 1 0
    outer loop
      vertex 56.0615 6 30.587
      vertex 102.5 6 1
      vertex 54.628 6 30.2542
    endloop
  endfacet
  facet normal 0 1 0
    outer loop
      vertex 58.5421 6 31.7138
      vertex 102.5 6 1
      vertex 56.0615 6 30.587
    endloop
  endfacet
  facet normal 0 1 0
    outer loop
      vertex 39.9233 6 41.3757
      vertex 1.5 6 42
      vertex 39.8355 6 42
    endloop
  endfacet
  facet normal 0 1 0
    outer loop
      vertex 40.3473 6 38.3615
      vertex 1.5 6 42
      vertex 39.9233 6 41.3757
    endloop
  endfacet
  facet normal 0 1 0
    outer loop
      vertex 40.7449 6 37.4469
      vertex 1.5 6 42
      vertex 40.3473 6 38.3615
    endloop
  endfacet
  facet normal 0 1 0
    outer loop
      vertex 41.7525 6 35.6142
      vertex 1.5 6 42
      vertex 40.7449 6 37.4469
    endloop
  endfacet
  facet normal 0 1 0
    outer loop
      vertex 42.155 6 34.8821
      vertex 1.5 6 42
      vertex 41.7525 6 35.6142
    endloop
  endfacet
  facet normal 0 1 0
    outer loop
      vertex 1.5 6 1
      vertex 42.155 6 34.8821
      vertex 43.4076 6 33.5999
    endloop
  endfacet
  facet normal 0 1 0
    outer loop
      vertex 1.5 6 1
      vertex 43.4076 6 33.5999
      vertex 44.7831 6 32.1917
    endloop
  endfacet
  facet normal 0 1 0
    outer loop
      vertex 1.5 6 1
      vertex 44.7831 6 32.1917
      vertex 45.0947 6 31.971
    endloop
  endfacet
  facet normal 0 1 0
    outer loop
      vertex 1.5 6 1
      vertex 45.0947 6 31.971
      vertex 45.4579 6 31.7138
    endloop
  endfacet
  facet normal 0 1 0
    outer loop
      vertex 1.5 6 1
      vertex 45.4579 6 31.7138
      vertex 47.9385 6 30.587
    endloop
  endfacet
  facet normal 0 1 0
    outer loop
      vertex 1.5 6 1
      vertex 50.6862 6 29.9491
      vertex 102.5 6 1
    endloop
  endfacet
  facet normal 0 1 0
    outer loop
      vertex 50.6862 6 29.9491
      vertex 1.5 6 1
      vertex 49.372 6 30.2542
    endloop
  endfacet
  facet normal 0 1 0
    outer loop
      vertex 49.372 6 30.2542
      vertex 1.5 6 1
      vertex 47.9385 6 30.587
    endloop
  endfacet
  facet normal 0 1 0
    outer loop
      vertex 42.155 6 34.8821
      vertex 1.5 6 1
      vertex 1.5 6 42
    endloop
  endfacet
  facet normal -0.404533 -0.908595 0.103962
    outer loop
      vertex 60.5588 33.3243 38.3615
      vertex 57.4078 35.1435 42
      vertex 57.2896 34.7798 38.3615
    endloop
  endfacet
  facet normal 0.404533 -0.908595 0.103962
    outer loop
      vertex 43.4412 33.3243 38.3615
      vertex 46.5922 35.1435 42
      vertex 43.25 33.6554 42
    endloop
  endfacet
  facet normal -0.559309 0.769822 0.307485
    outer loop
      vertex 63.2551 6 37.4469
      vertex 60.5588 3.67574 38.3615
      vertex 63.4539 5.77916 38.3615
    endloop
  endfacet
  facet normal -0.559309 0.769822 0.307485
    outer loop
      vertex 60.5588 3.67574 38.3615
      vertex 63.2551 6 37.4469
      vertex 62.2475 6 35.6142
    endloop
  endfacet
  facet normal 0 -0.994581 0.103962
    outer loop
      vertex 50.2107 35.5238 38.3615
      vertex 53.8292 35.9041 42
      vertex 50.1708 35.9041 42
    endloop
  endfacet
  facet normal 0 -0.994581 0.103962
    outer loop
      vertex 53.8292 35.9041 42
      vertex 50.2107 35.5238 38.3615
      vertex 53.7893 35.5238 38.3615
    endloop
  endfacet
  facet normal 0.707139 -0.636716 0.307485
    outer loop
      vertex 40.7449 31 37.4469
      vertex 40.5461 31.2208 38.3615
      vertex 40.3473 31 38.3615
    endloop
  endfacet
  facet normal -0.197839 -0.930759 0.307485
    outer loop
      vertex 57.2896 34.7798 38.3615
      vertex 53.7893 35.5238 38.3615
      vertex 53.6711 34.3995 34.8821
    endloop
  endfacet
  facet normal -0.739117 -0.665505 0.103963
    outer loop
      vertex 64.0767 31 41.3757
      vertex 64.1645 31 42
      vertex 63.7098 31.505 42
    endloop
  endfacet
  facet normal 0 0.994581 0.103962
    outer loop
      vertex 53.7893 1.47619 38.3615
      vertex 50.1708 1.09587 42
      vertex 53.8292 1.09587 42
    endloop
  endfacet
  facet normal 0 0.994581 0.103962
    outer loop
      vertex 50.1708 1.09587 42
      vertex 53.7893 1.47619 38.3615
      vertex 50.2107 1.47619 38.3615
    endloop
  endfacet
  facet normal 0.5846 0.804633 0.103962
    outer loop
      vertex 43.25 3.34455 42
      vertex 43.4412 3.67574 38.3615
      vertex 40.2902 5.49497 42
    endloop
  endfacet
  facet normal 0.5846 -0.804633 0.103962
    outer loop
      vertex 43.4412 33.3243 38.3615
      vertex 43.25 33.6554 42
      vertex 40.2902 31.505 42
    endloop
  endfacet
  facet normal -0.739122 -0.6655 0.103963
    outer loop
      vertex 64.0767 31 41.3757
      vertex 63.4539 31.2208 38.3615
      vertex 63.6527 31 38.3615
    endloop
  endfacet
  facet normal -0.739118 -0.665505 0.103962
    outer loop
      vertex 63.4539 31.2208 38.3615
      vertex 64.0767 31 41.3757
      vertex 63.7098 31.505 42
    endloop
  endfacet
  facet normal 0.180303 -0.84826 0.497941
    outer loop
      vertex 47.625 31.9649 31.7138
      vertex 50.5201 32.5802 31.7138
      vertex 47.0597 33.7046 34.8821
    endloop
  endfacet
  facet normal -0.387031 -0.869287 0.307484
    outer loop
      vertex 59.9935 32.3452 34.8821
      vertex 60.5588 33.3243 38.3615
      vertex 56.9403 33.7046 34.8821
    endloop
  endfacet
  facet normal -0.5846 -0.804633 0.103962
    outer loop
      vertex 63.4539 31.2208 38.3615
      vertex 63.7098 31.505 42
      vertex 60.5588 33.3243 38.3615
    endloop
  endfacet
  facet normal -0.404533 0.908595 0.103962
    outer loop
      vertex 60.75 3.34455 42
      vertex 60.5588 3.67574 38.3615
      vertex 57.4078 1.85651 42
    endloop
  endfacet
  facet normal -0.5846 0.804633 0.103962
    outer loop
      vertex 60.75 3.34455 42
      vertex 63.7098 5.49497 42
      vertex 60.5588 3.67574 38.3615
    endloop
  endfacet
  facet normal 0 0.744969 0.667099
    outer loop
      vertex 53.3138 6 29.9491
      vertex 50.5201 4.41976 31.7138
      vertex 53.4799 4.41976 31.7138
    endloop
  endfacet
  facet normal 0 0.744969 0.667099
    outer loop
      vertex 50.5201 4.41976 31.7138
      vertex 53.3138 6 29.9491
      vertex 50.6862 6 29.9491
    endloop
  endfacet
  facet normal -0.739118 0.665504 0.103963
    outer loop
      vertex 64.1645 6 42
      vertex 64.0767 6 41.3757
      vertex 63.7098 5.49497 42
    endloop
  endfacet
  facet normal -0.180303 -0.84826 0.497941
    outer loop
      vertex 56.375 31.9649 31.7138
      vertex 56.9403 33.7046 34.8821
      vertex 53.4799 32.5802 31.7138
    endloop
  endfacet
  facet normal -0.559309 -0.769823 0.307485
    outer loop
      vertex 59.9935 32.3452 34.8821
      vertex 62.2475 31 35.6142
      vertex 60.5588 33.3243 38.3615
    endloop
  endfacet
  facet normal -0.559309 -0.769822 0.307487
    outer loop
      vertex 62.2475 31 35.6142
      vertex 59.9935 32.3452 34.8821
      vertex 61.845 31 34.8821
    endloop
  endfacet
  facet normal -0.509734 -0.701588 0.497941
    outer loop
      vertex 60.5924 31 33.5999
      vertex 61.845 31 34.8821
      vertex 59.9935 32.3452 34.8821
    endloop
  endfacet
  facet normal -0.739117 0.665506 0.103961
    outer loop
      vertex 63.4539 5.77916 38.3615
      vertex 64.0767 6 41.3757
      vertex 63.6527 6 38.3615
    endloop
  endfacet
  facet normal -0.739119 0.665504 0.103962
    outer loop
      vertex 64.0767 6 41.3757
      vertex 63.4539 5.77916 38.3615
      vertex 63.7098 5.49497 42
    endloop
  endfacet
  facet normal 0.739118 0.665505 0.103958
    outer loop
      vertex 40.2902 5.49497 42
      vertex 39.9233 6 41.3757
      vertex 39.8355 6 42
    endloop
  endfacet
  facet normal 0 -0.744969 0.667099
    outer loop
      vertex 50.6862 31 29.9491
      vertex 53.4799 32.5802 31.7138
      vertex 50.5201 32.5802 31.7138
    endloop
  endfacet
  facet normal 0 -0.744969 0.667099
    outer loop
      vertex 53.4799 32.5802 31.7138
      vertex 50.6862 31 29.9491
      vertex 53.3138 31 29.9491
    endloop
  endfacet
  facet normal 0 -0.867211 0.497941
    outer loop
      vertex 50.5201 32.5802 31.7138
      vertex 53.6711 34.3995 34.8821
      vertex 50.3289 34.3995 34.8821
    endloop
  endfacet
  facet normal 0 -0.867211 0.497941
    outer loop
      vertex 53.6711 34.3995 34.8821
      vertex 50.5201 32.5802 31.7138
      vertex 53.4799 32.5802 31.7138
    endloop
  endfacet
  facet normal 0.352725 -0.792237 0.497942
    outer loop
      vertex 45.4579 31 31.7138
      vertex 47.0597 33.7046 34.8821
      vertex 45.0947 31 31.971
    endloop
  endfacet
  facet normal 0.352726 -0.792237 0.497941
    outer loop
      vertex 47.0597 33.7046 34.8821
      vertex 45.4579 31 31.7138
      vertex 47.625 31.9649 31.7138
    endloop
  endfacet
  facet normal 0.154888 -0.728689 0.667099
    outer loop
      vertex 49.372 31 30.2542
      vertex 47.625 31.9649 31.7138
      vertex 47.9385 31 30.587
    endloop
  endfacet
  facet normal 0.154888 -0.72869 0.667099
    outer loop
      vertex 47.625 31.9649 31.7138
      vertex 49.372 31 30.2542
      vertex 50.5201 32.5802 31.7138
    endloop
  endfacet
  facet normal -0.404533 -0.908595 0.103962
    outer loop
      vertex 60.5588 33.3243 38.3615
      vertex 60.75 33.6554 42
      vertex 57.4078 35.1435 42
    endloop
  endfacet
  facet normal -0.206785 -0.972847 0.103962
    outer loop
      vertex 57.2896 34.7798 38.3615
      vertex 57.4078 35.1435 42
      vertex 53.7893 35.5238 38.3615
    endloop
  endfacet
  facet normal -0.206785 -0.972847 0.103962
    outer loop
      vertex 57.4078 35.1435 42
      vertex 53.8292 35.9041 42
      vertex 53.7893 35.5238 38.3615
    endloop
  endfacet
  facet normal -0.707145 -0.636709 0.307485
    outer loop
      vertex 63.6527 31 38.3615
      vertex 63.4539 31.2208 38.3615
      vertex 63.2551 31 37.4469
    endloop
  endfacet
  facet normal -0.559309 -0.769822 0.307485
    outer loop
      vertex 60.5588 33.3243 38.3615
      vertex 63.2551 31 37.4469
      vertex 63.4539 31.2208 38.3615
    endloop
  endfacet
  facet normal -0.559309 -0.769823 0.307484
    outer loop
      vertex 63.2551 31 37.4469
      vertex 60.5588 33.3243 38.3615
      vertex 62.2475 31 35.6142
    endloop
  endfacet
  facet normal -0.387032 -0.869287 0.307485
    outer loop
      vertex 60.5588 33.3243 38.3615
      vertex 57.2896 34.7798 38.3615
      vertex 56.9403 33.7046 34.8821
    endloop
  endfacet
  facet normal -0.509733 -0.701588 0.497942
    outer loop
      vertex 60.5924 31 33.5999
      vertex 59.9935 32.3452 34.8821
      vertex 59.2169 31 32.1917
    endloop
  endfacet
  facet normal -0.352726 -0.792236 0.497942
    outer loop
      vertex 56.9403 33.7046 34.8821
      vertex 59.2169 31 32.1917
      vertex 59.9935 32.3452 34.8821
    endloop
  endfacet
  facet normal -0.352727 -0.792237 0.497941
    outer loop
      vertex 59.2169 31 32.1917
      vertex 56.9403 33.7046 34.8821
      vertex 58.9053 31 31.971
    endloop
  endfacet
  facet normal -0.352726 -0.792237 0.497941
    outer loop
      vertex 58.5421 31 31.7138
      vertex 56.9403 33.7046 34.8821
      vertex 56.375 31.9649 31.7138
    endloop
  endfacet
  facet normal -0.352727 -0.792237 0.497941
    outer loop
      vertex 56.9403 33.7046 34.8821
      vertex 58.5421 31 31.7138
      vertex 58.9053 31 31.971
    endloop
  endfacet
  facet normal -0.5846 0.804633 0.103962
    outer loop
      vertex 63.7098 5.49497 42
      vertex 63.4539 5.77916 38.3615
      vertex 60.5588 3.67574 38.3615
    endloop
  endfacet
  facet normal -0.707141 0.636714 0.307485
    outer loop
      vertex 63.4539 5.77916 38.3615
      vertex 63.6527 6 38.3615
      vertex 63.2551 6 37.4469
    endloop
  endfacet
  facet normal -0.387031 0.869287 0.307485
    outer loop
      vertex 57.2896 2.22021 38.3615
      vertex 60.5588 3.67574 38.3615
      vertex 56.9403 3.29542 34.8821
    endloop
  endfacet
  facet normal -0.154887 0.72869 0.667099
    outer loop
      vertex 53.4799 4.41976 31.7138
      vertex 54.628 6 30.2542
      vertex 53.3138 6 29.9491
    endloop
  endfacet
  facet normal -0.197839 0.930759 0.307485
    outer loop
      vertex 57.2896 2.22021 38.3615
      vertex 56.9403 3.29542 34.8821
      vertex 53.6711 2.60053 34.8821
    endloop
  endfacet
  facet normal -0.197839 0.930759 0.307485
    outer loop
      vertex 53.7893 1.47619 38.3615
      vertex 57.2896 2.22021 38.3615
      vertex 53.6711 2.60053 34.8821
    endloop
  endfacet
  facet normal -0.404532 0.908595 0.103962
    outer loop
      vertex 57.4078 1.85651 42
      vertex 60.5588 3.67574 38.3615
      vertex 57.2896 2.22021 38.3615
    endloop
  endfacet
  facet normal 0.559309 -0.769822 0.307485
    outer loop
      vertex 40.7449 31 37.4469
      vertex 43.4412 33.3243 38.3615
      vertex 40.5461 31.2208 38.3615
    endloop
  endfacet
  facet normal 0.559309 -0.769823 0.307484
    outer loop
      vertex 43.4412 33.3243 38.3615
      vertex 40.7449 31 37.4469
      vertex 41.7525 31 35.6142
    endloop
  endfacet
  facet normal 0.739117 -0.665505 0.103963
    outer loop
      vertex 39.9233 31 41.3757
      vertex 40.2902 31.505 42
      vertex 39.8355 31 42
    endloop
  endfacet
  facet normal 0.509733 -0.701588 0.497941
    outer loop
      vertex 43.4076 31 33.5999
      vertex 44.0065 32.3452 34.8821
      vertex 42.155 31 34.8821
    endloop
  endfacet
  facet normal 0.559309 -0.769823 0.307484
    outer loop
      vertex 44.0065 32.3452 34.8821
      vertex 41.7525 31 35.6142
      vertex 42.155 31 34.8821
    endloop
  endfacet
  facet normal 0.559309 -0.769823 0.307485
    outer loop
      vertex 41.7525 31 35.6142
      vertex 44.0065 32.3452 34.8821
      vertex 43.4412 33.3243 38.3615
    endloop
  endfacet
  facet normal 0.739117 0.665506 0.103962
    outer loop
      vertex 39.9233 6 41.3757
      vertex 40.5461 5.77916 38.3615
      vertex 40.3473 6 38.3615
    endloop
  endfacet
  facet normal 0.739116 0.665507 0.103962
    outer loop
      vertex 40.5461 5.77916 38.3615
      vertex 39.9233 6 41.3757
      vertex 40.2902 5.49497 42
    endloop
  endfacet
  facet normal 0 -0.951553 0.307485
    outer loop
      vertex 50.3289 34.3995 34.8821
      vertex 53.7893 35.5238 38.3615
      vertex 50.2107 35.5238 38.3615
    endloop
  endfacet
  facet normal 0 -0.951553 0.307485
    outer loop
      vertex 53.7893 35.5238 38.3615
      vertex 50.3289 34.3995 34.8821
      vertex 53.6711 34.3995 34.8821
    endloop
  endfacet
  facet normal 0.387032 -0.869287 0.307485
    outer loop
      vertex 47.0597 33.7046 34.8821
      vertex 46.7104 34.7798 38.3615
      vertex 43.4412 33.3243 38.3615
    endloop
  endfacet
  facet normal 0.197839 -0.930759 0.307485
    outer loop
      vertex 50.3289 34.3995 34.8821
      vertex 50.2107 35.5238 38.3615
      vertex 46.7104 34.7798 38.3615
    endloop
  endfacet
  facet normal 0.19784 -0.930759 0.307485
    outer loop
      vertex 47.0597 33.7046 34.8821
      vertex 50.3289 34.3995 34.8821
      vertex 46.7104 34.7798 38.3615
    endloop
  endfacet
  facet normal 0.303006 -0.680563 0.667099
    outer loop
      vertex 47.9385 31 30.587
      vertex 47.625 31.9649 31.7138
      vertex 45.4579 31 31.7138
    endloop
  endfacet
  facet normal 0.206785 -0.972847 0.103962
    outer loop
      vertex 50.2107 35.5238 38.3615
      vertex 50.1708 35.9041 42
      vertex 46.5922 35.1435 42
    endloop
  endfacet
  facet normal -0.5846 -0.804633 0.103962
    outer loop
      vertex 63.7098 31.505 42
      vertex 60.75 33.6554 42
      vertex 60.5588 33.3243 38.3615
    endloop
  endfacet
  facet normal -0.154889 -0.72869 0.667099
    outer loop
      vertex 54.628 31 30.2542
      vertex 53.4799 32.5802 31.7138
      vertex 53.3138 31 29.9491
    endloop
  endfacet
  facet normal 0.206785 0.972847 0.103962
    outer loop
      vertex 50.1708 1.09587 42
      vertex 50.2107 1.47619 38.3615
      vertex 46.5922 1.85651 42
    endloop
  endfacet
  facet normal 0.180303 0.84826 0.497941
    outer loop
      vertex 50.5201 4.41976 31.7138
      vertex 47.625 5.03513 31.7138
      vertex 47.0597 3.29542 34.8821
    endloop
  endfacet
  facet normal 0.154888 0.72869 0.667099
    outer loop
      vertex 49.372 6 30.2542
      vertex 47.625 5.03513 31.7138
      vertex 50.5201 4.41976 31.7138
    endloop
  endfacet
  facet normal 0.154888 0.72869 0.667099
    outer loop
      vertex 47.625 5.03513 31.7138
      vertex 49.372 6 30.2542
      vertex 47.9385 6 30.587
    endloop
  endfacet
  facet normal 0.206785 0.972847 0.103962
    outer loop
      vertex 50.2107 1.47619 38.3615
      vertex 46.7104 2.22021 38.3615
      vertex 46.5922 1.85651 42
    endloop
  endfacet
  facet normal 0.197839 0.930759 0.307485
    outer loop
      vertex 50.3289 2.60053 34.8821
      vertex 47.0597 3.29542 34.8821
      vertex 46.7104 2.22021 38.3615
    endloop
  endfacet
  facet normal 0.559309 0.769822 0.307485
    outer loop
      vertex 43.4412 3.67574 38.3615
      vertex 40.7449 6 37.4469
      vertex 40.5461 5.77916 38.3615
    endloop
  endfacet
  facet normal 0.559309 0.769822 0.307485
    outer loop
      vertex 40.7449 6 37.4469
      vertex 43.4412 3.67574 38.3615
      vertex 41.7525 6 35.6142
    endloop
  endfacet
  facet normal -0.352727 0.792237 0.497941
    outer loop
      vertex 58.5421 6 31.7138
      vertex 56.9403 3.29542 34.8821
      vertex 58.9053 6 31.971
    endloop
  endfacet
  facet normal -0.352726 0.792237 0.497941
    outer loop
      vertex 56.9403 3.29542 34.8821
      vertex 58.5421 6 31.7138
      vertex 56.375 5.03513 31.7138
    endloop
  endfacet
  facet normal 0.739118 -0.665505 0.103962
    outer loop
      vertex 39.9233 31 41.3757
      vertex 40.5461 31.2208 38.3615
      vertex 40.2902 31.505 42
    endloop
  endfacet
  facet normal 0.739116 -0.665507 0.103961
    outer loop
      vertex 40.5461 31.2208 38.3615
      vertex 39.9233 31 41.3757
      vertex 40.3473 31 38.3615
    endloop
  endfacet
  facet normal 0.5846 -0.804633 0.103962
    outer loop
      vertex 40.5461 31.2208 38.3615
      vertex 43.4412 33.3243 38.3615
      vertex 40.2902 31.505 42
    endloop
  endfacet
  facet normal 0.180304 -0.84826 0.497941
    outer loop
      vertex 50.5201 32.5802 31.7138
      vertex 50.3289 34.3995 34.8821
      vertex 47.0597 33.7046 34.8821
    endloop
  endfacet
  facet normal 0.509734 -0.701588 0.497941
    outer loop
      vertex 44.7831 31 32.1917
      vertex 44.0065 32.3452 34.8821
      vertex 43.4076 31 33.5999
    endloop
  endfacet
  facet normal -0.19784 -0.930759 0.307485
    outer loop
      vertex 56.9403 33.7046 34.8821
      vertex 57.2896 34.7798 38.3615
      vertex 53.6711 34.3995 34.8821
    endloop
  endfacet
  facet normal -0.180304 -0.84826 0.497941
    outer loop
      vertex 56.9403 33.7046 34.8821
      vertex 53.6711 34.3995 34.8821
      vertex 53.4799 32.5802 31.7138
    endloop
  endfacet
  facet normal 0.206785 -0.972847 0.103962
    outer loop
      vertex 46.7104 34.7798 38.3615
      vertex 50.2107 35.5238 38.3615
      vertex 46.5922 35.1435 42
    endloop
  endfacet
  facet normal 0.404533 -0.908595 0.103962
    outer loop
      vertex 46.7104 34.7798 38.3615
      vertex 46.5922 35.1435 42
      vertex 43.4412 33.3243 38.3615
    endloop
  endfacet
  facet normal -0.303006 -0.680563 0.667099
    outer loop
      vertex 58.5421 31 31.7138
      vertex 56.375 31.9649 31.7138
      vertex 56.0615 31 30.587
    endloop
  endfacet
  facet normal -0.154888 -0.72869 0.667099
    outer loop
      vertex 54.628 31 30.2542
      vertex 56.375 31.9649 31.7138
      vertex 53.4799 32.5802 31.7138
    endloop
  endfacet
  facet normal -0.154888 -0.728689 0.667099
    outer loop
      vertex 56.375 31.9649 31.7138
      vertex 54.628 31 30.2542
      vertex 56.0615 31 30.587
    endloop
  endfacet
  facet normal 0.154887 0.72869 0.667099
    outer loop
      vertex 50.5201 4.41976 31.7138
      vertex 50.6862 6 29.9491
      vertex 49.372 6 30.2542
    endloop
  endfacet
  facet normal 0.180303 0.84826 0.497941
    outer loop
      vertex 50.3289 2.60053 34.8821
      vertex 50.5201 4.41976 31.7138
      vertex 47.0597 3.29542 34.8821
    endloop
  endfacet
  facet normal 0 0.867211 0.497941
    outer loop
      vertex 53.4799 4.41976 31.7138
      vertex 50.3289 2.60053 34.8821
      vertex 53.6711 2.60053 34.8821
    endloop
  endfacet
  facet normal 0 0.867211 0.497941
    outer loop
      vertex 50.3289 2.60053 34.8821
      vertex 53.4799 4.41976 31.7138
      vertex 50.5201 4.41976 31.7138
    endloop
  endfacet
  facet normal -0.509733 0.701588 0.497941
    outer loop
      vertex 61.845 6 34.8821
      vertex 60.5924 6 33.5999
      vertex 59.9935 4.65481 34.8821
    endloop
  endfacet
  facet normal -0.559309 0.769823 0.307484
    outer loop
      vertex 59.9935 4.65481 34.8821
      vertex 62.2475 6 35.6142
      vertex 61.845 6 34.8821
    endloop
  endfacet
  facet normal -0.559309 0.769822 0.307485
    outer loop
      vertex 62.2475 6 35.6142
      vertex 59.9935 4.65481 34.8821
      vertex 60.5588 3.67574 38.3615
    endloop
  endfacet
  facet normal 0.197839 0.930759 0.307485
    outer loop
      vertex 50.2107 1.47619 38.3615
      vertex 50.3289 2.60053 34.8821
      vertex 46.7104 2.22021 38.3615
    endloop
  endfacet
  facet normal -0.154888 0.72869 0.667099
    outer loop
      vertex 54.628 6 30.2542
      vertex 56.375 5.03513 31.7138
      vertex 56.0615 6 30.587
    endloop
  endfacet
  facet normal -0.154888 0.72869 0.667099
    outer loop
      vertex 56.375 5.03513 31.7138
      vertex 54.628 6 30.2542
      vertex 53.4799 4.41976 31.7138
    endloop
  endfacet
  facet normal -0.180303 0.84826 0.497941
    outer loop
      vertex 56.9403 3.29542 34.8821
      vertex 56.375 5.03513 31.7138
      vertex 53.4799 4.41976 31.7138
    endloop
  endfacet
  facet normal -0.303006 0.680563 0.667099
    outer loop
      vertex 56.375 5.03513 31.7138
      vertex 58.5421 6 31.7138
      vertex 56.0615 6 30.587
    endloop
  endfacet
  facet normal 0.352726 -0.792237 0.497941
    outer loop
      vertex 44.7831 31 32.1917
      vertex 47.0597 33.7046 34.8821
      vertex 44.0065 32.3452 34.8821
    endloop
  endfacet
  facet normal 0.352727 -0.792237 0.49794
    outer loop
      vertex 47.0597 33.7046 34.8821
      vertex 44.7831 31 32.1917
      vertex 45.0947 31 31.971
    endloop
  endfacet
  facet normal 0.387031 -0.869287 0.307484
    outer loop
      vertex 44.0065 32.3452 34.8821
      vertex 47.0597 33.7046 34.8821
      vertex 43.4412 33.3243 38.3615
    endloop
  endfacet
  facet normal 0.154888 -0.72869 0.667099
    outer loop
      vertex 50.6862 31 29.9491
      vertex 50.5201 32.5802 31.7138
      vertex 49.372 31 30.2542
    endloop
  endfacet
  facet normal 0.352726 0.792237 0.497941
    outer loop
      vertex 47.0597 3.29542 34.8821
      vertex 44.7831 6 32.1917
      vertex 44.0065 4.65481 34.8821
    endloop
  endfacet
  facet normal 0.352726 0.792237 0.497941
    outer loop
      vertex 44.7831 6 32.1917
      vertex 47.0597 3.29542 34.8821
      vertex 45.0947 6 31.971
    endloop
  endfacet
  facet normal 0 0.951553 0.307485
    outer loop
      vertex 53.6711 2.60053 34.8821
      vertex 50.2107 1.47619 38.3615
      vertex 53.7893 1.47619 38.3615
    endloop
  endfacet
  facet normal 0 0.951553 0.307485
    outer loop
      vertex 50.2107 1.47619 38.3615
      vertex 53.6711 2.60053 34.8821
      vertex 50.3289 2.60053 34.8821
    endloop
  endfacet
  facet normal 0.404533 0.908595 0.103962
    outer loop
      vertex 46.5922 1.85651 42
      vertex 43.4412 3.67574 38.3615
      vertex 43.25 3.34455 42
    endloop
  endfacet
  facet normal 0.404532 0.908595 0.103962
    outer loop
      vertex 46.5922 1.85651 42
      vertex 46.7104 2.22021 38.3615
      vertex 43.4412 3.67574 38.3615
    endloop
  endfacet
  facet normal -0.180303 0.84826 0.497941
    outer loop
      vertex 53.6711 2.60053 34.8821
      vertex 56.9403 3.29542 34.8821
      vertex 53.4799 4.41976 31.7138
    endloop
  endfacet
  facet normal -0.509734 0.701588 0.497941
    outer loop
      vertex 59.9935 4.65481 34.8821
      vertex 60.5924 6 33.5999
      vertex 59.2169 6 32.1917
    endloop
  endfacet
  facet normal 0.5846 0.804633 0.103962
    outer loop
      vertex 43.4412 3.67574 38.3615
      vertex 40.5461 5.77916 38.3615
      vertex 40.2902 5.49497 42
    endloop
  endfacet
  facet normal 0.509734 0.701589 0.49794
    outer loop
      vertex 44.0065 4.65481 34.8821
      vertex 43.4076 6 33.5999
      vertex 42.155 6 34.8821
    endloop
  endfacet
  facet normal 0.509733 0.701589 0.497941
    outer loop
      vertex 44.0065 4.65481 34.8821
      vertex 44.7831 6 32.1917
      vertex 43.4076 6 33.5999
    endloop
  endfacet
  facet normal -0.206785 0.972847 0.103962
    outer loop
      vertex 57.4078 1.85651 42
      vertex 57.2896 2.22021 38.3615
      vertex 53.7893 1.47619 38.3615
    endloop
  endfacet
  facet normal -0.206785 0.972847 0.103962
    outer loop
      vertex 53.8292 1.09587 42
      vertex 57.4078 1.85651 42
      vertex 53.7893 1.47619 38.3615
    endloop
  endfacet
  facet normal 0.352726 0.792237 0.497941
    outer loop
      vertex 45.4579 6 31.7138
      vertex 47.0597 3.29542 34.8821
      vertex 47.625 5.03513 31.7138
    endloop
  endfacet
  facet normal 0.352727 0.792237 0.497941
    outer loop
      vertex 47.0597 3.29542 34.8821
      vertex 45.4579 6 31.7138
      vertex 45.0947 6 31.971
    endloop
  endfacet
  facet normal 0.303006 0.680563 0.667099
    outer loop
      vertex 47.625 5.03513 31.7138
      vertex 47.9385 6 30.587
      vertex 45.4579 6 31.7138
    endloop
  endfacet
  facet normal -0.352726 0.792237 0.497941
    outer loop
      vertex 59.2169 6 32.1917
      vertex 56.9403 3.29542 34.8821
      vertex 59.9935 4.65481 34.8821
    endloop
  endfacet
  facet normal -0.352726 0.792237 0.497941
    outer loop
      vertex 56.9403 3.29542 34.8821
      vertex 59.2169 6 32.1917
      vertex 58.9053 6 31.971
    endloop
  endfacet
  facet normal -0.387031 0.869287 0.307485
    outer loop
      vertex 60.5588 3.67574 38.3615
      vertex 59.9935 4.65481 34.8821
      vertex 56.9403 3.29542 34.8821
    endloop
  endfacet
  facet normal 0.559309 0.769822 0.307485
    outer loop
      vertex 44.0065 4.65481 34.8821
      vertex 41.7525 6 35.6142
      vertex 43.4412 3.67574 38.3615
    endloop
  endfacet
  facet normal 0.559309 0.769823 0.307484
    outer loop
      vertex 41.7525 6 35.6142
      vertex 44.0065 4.65481 34.8821
      vertex 42.155 6 34.8821
    endloop
  endfacet
  facet normal 0.387031 0.869287 0.307485
    outer loop
      vertex 47.0597 3.29542 34.8821
      vertex 44.0065 4.65481 34.8821
      vertex 43.4412 3.67574 38.3615
    endloop
  endfacet
  facet normal 0.387031 0.869287 0.307485
    outer loop
      vertex 46.7104 2.22021 38.3615
      vertex 47.0597 3.29542 34.8821
      vertex 43.4412 3.67574 38.3615
    endloop
  endfacet
  facet normal 0.707141 0.636714 0.307485
    outer loop
      vertex 40.5461 5.77916 38.3615
      vertex 40.7449 6 37.4469
      vertex 40.3473 6 38.3615
    endloop
  endfacet
  facet normal -1 0 0
    outer loop
      vertex 0 0 0
      vertex 0 37 42
      vertex 0 37 0
    endloop
  endfacet
  facet normal -1 -0 0
    outer loop
      vertex 0 37 42
      vertex 0 0 0
      vertex 0 0 42
    endloop
  endfacet
  facet normal 0 0 1
    outer loop
      vertex 104 37 42
      vertex 102.5 31 42
      vertex 104 0 42
    endloop
  endfacet
  facet normal 0 0 1
    outer loop
      vertex 104 37 42
      vertex 64.1645 31 42
      vertex 102.5 31 42
    endloop
  endfacet
  facet normal 0 0 1
    outer loop
      vertex 104 37 42
      vertex 63.7098 31.505 42
      vertex 64.1645 31 42
    endloop
  endfacet
  facet normal 0 0 1
    outer loop
      vertex 104 37 42
      vertex 60.75 33.6554 42
      vertex 63.7098 31.505 42
    endloop
  endfacet
  facet normal 0 0 1
    outer loop
      vertex 104 37 42
      vertex 57.4078 35.1435 42
      vertex 60.75 33.6554 42
    endloop
  endfacet
  facet normal 0 0 1
    outer loop
      vertex 104 37 42
      vertex 53.8292 35.9041 42
      vertex 57.4078 35.1435 42
    endloop
  endfacet
  facet normal 0 0 1
    outer loop
      vertex 104 37 42
      vertex 50.1708 35.9041 42
      vertex 53.8292 35.9041 42
    endloop
  endfacet
  facet normal 0 0 1
    outer loop
      vertex 0 37 42
      vertex 39.8355 31 42
      vertex 40.2902 31.505 42
    endloop
  endfacet
  facet normal 0 0 1
    outer loop
      vertex 0 37 42
      vertex 40.2902 31.505 42
      vertex 43.25 33.6554 42
    endloop
  endfacet
  facet normal 0 0 1
    outer loop
      vertex 0 37 42
      vertex 43.25 33.6554 42
      vertex 46.5922 35.1435 42
    endloop
  endfacet
  facet normal 0 0 1
    outer loop
      vertex 0 37 42
      vertex 46.5922 35.1435 42
      vertex 50.1708 35.9041 42
    endloop
  endfacet
  facet normal 0 0 1
    outer loop
      vertex 1.5 31 42
      vertex 0 37 42
      vertex 1.5 6 42
    endloop
  endfacet
  facet normal 0 0 1
    outer loop
      vertex 39.8355 31 42
      vertex 0 37 42
      vertex 1.5 31 42
    endloop
  endfacet
  facet normal -0 0 1
    outer loop
      vertex 0 37 42
      vertex 50.1708 35.9041 42
      vertex 104 37 42
    endloop
  endfacet
  facet normal -0 0 1
    outer loop
      vertex 102.5 6 42
      vertex 104 0 42
      vertex 102.5 31 42
    endloop
  endfacet
  facet normal -0 0 1
    outer loop
      vertex 64.1645 6 42
      vertex 104 0 42
      vertex 102.5 6 42
    endloop
  endfacet
  facet normal -0 0 1
    outer loop
      vertex 63.7098 5.49497 42
      vertex 104 0 42
      vertex 64.1645 6 42
    endloop
  endfacet
  facet normal -0 0 1
    outer loop
      vertex 60.75 3.34455 42
      vertex 104 0 42
      vertex 63.7098 5.49497 42
    endloop
  endfacet
  facet normal -0 0 1
    outer loop
      vertex 57.4078 1.85651 42
      vertex 104 0 42
      vertex 60.75 3.34455 42
    endloop
  endfacet
  facet normal -0 0 1
    outer loop
      vertex 53.8292 1.09587 42
      vertex 104 0 42
      vertex 57.4078 1.85651 42
    endloop
  endfacet
  facet normal -0 0 1
    outer loop
      vertex 50.1708 1.09587 42
      vertex 104 0 42
      vertex 53.8292 1.09587 42
    endloop
  endfacet
  facet normal 0 0 1
    outer loop
      vertex 0 0 42
      vertex 39.8355 6 42
      vertex 1.5 6 42
    endloop
  endfacet
  facet normal 0 0 1
    outer loop
      vertex 39.8355 6 42
      vertex 0 0 42
      vertex 40.2902 5.49497 42
    endloop
  endfacet
  facet normal 0 0 1
    outer loop
      vertex 40.2902 5.49497 42
      vertex 0 0 42
      vertex 43.25 3.34455 42
    endloop
  endfacet
  facet normal 0 0 1
    outer loop
      vertex 43.25 3.34455 42
      vertex 0 0 42
      vertex 46.5922 1.85651 42
    endloop
  endfacet
  facet normal 0 0 1
    outer loop
      vertex 50.1708 1.09587 42
      vertex 0 0 42
      vertex 104 0 42
    endloop
  endfacet
  facet normal 0 0 1
    outer loop
      vertex 46.5922 1.85651 42
      vertex 0 0 42
      vertex 50.1708 1.09587 42
    endloop
  endfacet
  facet normal 0 0 1
    outer loop
      vertex 0 0 42
      vertex 1.5 6 42
      vertex 0 37 42
    endloop
  endfacet
  facet normal 1 -0 0
    outer loop
      vertex 104 0 42
      vertex 104 37 0
      vertex 104 37 42
    endloop
  endfacet
  facet normal 1 0 0
    outer loop
      vertex 104 37 0
      vertex 104 0 42
      vertex 104 0 0
    endloop
  endfacet
  facet normal 0 1 -0
    outer loop
      vertex 104 37 0
      vertex 0 37 42
      vertex 104 37 42
    endloop
  endfacet
  facet normal 0 1 0
    outer loop
      vertex 0 37 42
      vertex 104 37 0
      vertex 0 37 0
    endloop
  endfacet
  facet normal 0 0 -1
    outer loop
      vertex 0 0 0
      vertex 104 37 0
      vertex 104 0 0
    endloop
  endfacet
  facet normal -0 0 -1
    outer loop
      vertex 104 37 0
      vertex 0 0 0
      vertex 0 37 0
    endloop
  endfacet
  facet normal 0 -1 0
    outer loop
      vertex 0 0 0
      vertex 104 0 42
      vertex 0 0 42
    endloop
  endfacet
  facet normal 0 -1 -0
    outer loop
      vertex 104 0 42
      vertex 0 0 0
      vertex 104 0 0
    endloop
  endfacet
endsolid OpenSCAD_Model
