solid OpenSCAD_Model
  facet normal 0 0.707107 -0.707107
    outer loop
      vertex 63 1.51 15.5
      vertex 0 3 16.99
      vertex 63 3 16.99
    endloop
  endfacet
  facet normal 0 0.707107 -0.707107
    outer loop
      vertex 0 3 16.99
      vertex 63 1.51 15.5
      vertex 0 1.51 15.5
    endloop
  endfacet
  facet normal 0 0 1
    outer loop
      vertex 63 34.49 15.5
      vertex 62.01 33.01 15.5
      vertex 63 33 15.5
    endloop
  endfacet
  facet normal 0 0 1
    outer loop
      vertex 63 34.49 15.5
      vertex 47.5 33.01 15.5
      vertex 62.01 33.01 15.5
    endloop
  endfacet
  facet normal 0 0 1
    outer loop
      vertex 47.5 33.01 15.5
      vertex 46.51 33.01 15.5
      vertex 47.5 33 15.5
    endloop
  endfacet
  facet normal 0 0 1
    outer loop
      vertex 63 34.49 15.5
      vertex 46.51 33.01 15.5
      vertex 47.5 33.01 15.5
    endloop
  endfacet
  facet normal 0 0 1
    outer loop
      vertex 63 34.49 15.5
      vertex 32 33.01 15.5
      vertex 46.51 33.01 15.5
    endloop
  endfacet
  facet normal 0 0 1
    outer loop
      vertex 32 33.01 15.5
      vertex 31.01 33.01 15.5
      vertex 32 33 15.5
    endloop
  endfacet
  facet normal 0 0 1
    outer loop
      vertex 63 34.49 15.5
      vertex 31.01 33.01 15.5
      vertex 32 33.01 15.5
    endloop
  endfacet
  facet normal -0 0 1
    outer loop
      vertex 0 34.49 15.5
      vertex 31.01 33.01 15.5
      vertex 63 34.49 15.5
    endloop
  endfacet
  facet normal 0 0 1
    outer loop
      vertex 16.5 33.01 15.5
      vertex 15.51 33.01 15.5
      vertex 16.5 33 15.5
    endloop
  endfacet
  facet normal 0 0 1
    outer loop
      vertex 31.01 33.01 15.5
      vertex 0 34.49 15.5
      vertex 16.5 33.01 15.5
    endloop
  endfacet
  facet normal 0 0 1
    outer loop
      vertex 16.5 33.01 15.5
      vertex 0 34.49 15.5
      vertex 15.51 33.01 15.5
    endloop
  endfacet
  facet normal 0 0 1
    outer loop
      vertex 15.51 33.01 15.5
      vertex 0 34.49 15.5
      vertex 1 33.01 15.5
    endloop
  endfacet
  facet normal 0 0 1
    outer loop
      vertex 0 33 15.5
      vertex 1 33.01 15.5
      vertex 0 34.49 15.5
    endloop
  endfacet
  facet normal 0 0 1
    outer loop
      vertex 1 33.01 15.5
      vertex 0 33 15.5
      vertex 1 33 15.5
    endloop
  endfacet
  facet normal 0 0 1
    outer loop
      vertex 63 33 15.5
      vertex 62.01 33.01 15.5
      vertex 62.01 33 15.5
    endloop
  endfacet
  facet normal 0 0 1
    outer loop
      vertex 47.5 33 15.5
      vertex 46.51 33.01 15.5
      vertex 46.51 33 15.5
    endloop
  endfacet
  facet normal 0 0 1
    outer loop
      vertex 32 33 15.5
      vertex 31.01 33.01 15.5
      vertex 31.01 33 15.5
    endloop
  endfacet
  facet normal 0 0 1
    outer loop
      vertex 16.5 33 15.5
      vertex 15.51 33.01 15.5
      vertex 15.51 33 15.5
    endloop
  endfacet
  facet normal -0 0 1
    outer loop
      vertex 0 3 15.5
      vertex 63 1.51 15.5
      vertex 63 3 15.5
    endloop
  endfacet
  facet normal 0 0 1
    outer loop
      vertex 63 1.51 15.5
      vertex 0 3 15.5
      vertex 0 1.51 15.5
    endloop
  endfacet
  facet normal 0 -0.707107 -0.707106
    outer loop
      vertex 0 34.49 15.5
      vertex 63 33 16.99
      vertex 0 33 16.99
    endloop
  endfacet
  facet normal 0 -0.707107 -0.707106
    outer loop
      vertex 63 33 16.99
      vertex 0 34.49 15.5
      vertex 63 34.49 15.5
    endloop
  endfacet
  facet normal 0 1 -0
    outer loop
      vertex 31.01 3 1
      vertex 16.5 3 4
      vertex 31.01 3 4
    endloop
  endfacet
  facet normal 0 1 0
    outer loop
      vertex 16.5 3 4
      vertex 31.01 3 1
      vertex 16.5 3 1
    endloop
  endfacet
  facet normal 0 1 -0
    outer loop
      vertex 46.51 3 1
      vertex 32 3 4
      vertex 46.51 3 4
    endloop
  endfacet
  facet normal 0 1 0
    outer loop
      vertex 32 3 4
      vertex 46.51 3 1
      vertex 32 3 1
    endloop
  endfacet
  facet normal 0 1 0
    outer loop
      vertex 32 3 4
      vertex 63 3 15.5
      vertex 46.51 3 4
    endloop
  endfacet
  facet normal 0 1 -0
    outer loop
      vertex 62.01 3 1
      vertex 47.5 3 4
      vertex 62.01 3 7.75
    endloop
  endfacet
  facet normal 0 1 0
    outer loop
      vertex 47.5 3 4
      vertex 62.01 3 1
      vertex 47.5 3 1
    endloop
  endfacet
  facet normal 0 1 0
    outer loop
      vertex 62.01 3 7.75
      vertex 63 3 15.5
      vertex 63 3 7.75
    endloop
  endfacet
  facet normal 0 1 0
    outer loop
      vertex 47.5 3 4
      vertex 63 3 15.5
      vertex 62.01 3 7.75
    endloop
  endfacet
  facet normal 0 1 0
    outer loop
      vertex 46.51 3 4
      vertex 63 3 15.5
      vertex 47.5 3 4
    endloop
  endfacet
  facet normal 0 1 0
    outer loop
      vertex 0 3 15.5
      vertex 1 3 7.75
      vertex 0 3 7.75
    endloop
  endfacet
  facet normal 0 1 0
    outer loop
      vertex 63 3 15.5
      vertex 32 3 4
      vertex 0 3 15.5
    endloop
  endfacet
  facet normal 0 1 -0
    outer loop
      vertex 31.01 3 4
      vertex 0 3 15.5
      vertex 32 3 4
    endloop
  endfacet
  facet normal 0 1 -0
    outer loop
      vertex 16.5 3 4
      vertex 0 3 15.5
      vertex 31.01 3 4
    endloop
  endfacet
  facet normal 0 1 -0
    outer loop
      vertex 15.51 3 4
      vertex 0 3 15.5
      vertex 16.5 3 4
    endloop
  endfacet
  facet normal 0 1 0
    outer loop
      vertex 0 3 15.5
      vertex 15.51 3 4
      vertex 1 3 7.75
    endloop
  endfacet
  facet normal 0 1 0
    outer loop
      vertex 1 3 1
      vertex 15.51 3 4
      vertex 15.51 3 1
    endloop
  endfacet
  facet normal 0 1 0
    outer loop
      vertex 15.51 3 4
      vertex 1 3 1
      vertex 1 3 7.75
    endloop
  endfacet
  facet normal 0 1 -0
    outer loop
      vertex 63 3 16.99
      vertex 0 3 17
      vertex 63 3 17
    endloop
  endfacet
  facet normal 0 1 0
    outer loop
      vertex 0 3 17
      vertex 63 3 16.99
      vertex 0 3 16.99
    endloop
  endfacet
  facet normal 0 -1 0
    outer loop
      vertex 0 33 7.75
      vertex 1 33 15.5
      vertex 0 33 15.5
    endloop
  endfacet
  facet normal 0 -1 -0
    outer loop
      vertex 1 33 15.5
      vertex 0 33 7.75
      vertex 1 33 7.75
    endloop
  endfacet
  facet normal 0 -1 0
    outer loop
      vertex 15.51 33 4
      vertex 16.5 33 15.5
      vertex 15.51 33 15.5
    endloop
  endfacet
  facet normal 0 -1 -0
    outer loop
      vertex 16.5 33 15.5
      vertex 15.51 33 4
      vertex 16.5 33 4
    endloop
  endfacet
  facet normal 0 -1 0
    outer loop
      vertex 31.01 33 4
      vertex 32 33 15.5
      vertex 31.01 33 15.5
    endloop
  endfacet
  facet normal 0 -1 -0
    outer loop
      vertex 32 33 15.5
      vertex 31.01 33 4
      vertex 32 33 4
    endloop
  endfacet
  facet normal 0 -1 0
    outer loop
      vertex 46.51 33 4
      vertex 47.5 33 15.5
      vertex 46.51 33 15.5
    endloop
  endfacet
  facet normal 0 -1 -0
    outer loop
      vertex 47.5 33 15.5
      vertex 46.51 33 4
      vertex 47.5 33 4
    endloop
  endfacet
  facet normal 0 -1 0
    outer loop
      vertex 62.01 33 7.75
      vertex 63 33 15.5
      vertex 62.01 33 15.5
    endloop
  endfacet
  facet normal 0 -1 -0
    outer loop
      vertex 63 33 15.5
      vertex 62.01 33 7.75
      vertex 63 33 7.75
    endloop
  endfacet
  facet normal 0 -1 0
    outer loop
      vertex 0 33 16.99
      vertex 63 33 17
      vertex 0 33 17
    endloop
  endfacet
  facet normal 0 -1 -0
    outer loop
      vertex 63 33 17
      vertex 0 33 16.99
      vertex 63 33 16.99
    endloop
  endfacet
  facet normal 1 0 0
    outer loop
      vertex 1 33 7.75
      vertex 1 17.51 4
      vertex 1 18.5 4
    endloop
  endfacet
  facet normal 1 -0 0
    outer loop
      vertex 1 3 7.75
      vertex 1 17.51 4
      vertex 1 33 7.75
    endloop
  endfacet
  facet normal 1 0 0
    outer loop
      vertex 1 3 1
      vertex 1 17.51 4
      vertex 1 3 7.75
    endloop
  endfacet
  facet normal 1 0 0
    outer loop
      vertex 1 17.51 4
      vertex 1 3 1
      vertex 1 17.51 1
    endloop
  endfacet
  facet normal 1 0 0
    outer loop
      vertex 1 33 7.75
      vertex 1 33.01 15.5
      vertex 1 33 15.5
    endloop
  endfacet
  facet normal 1 0 0
    outer loop
      vertex 1 33.01 15.5
      vertex 1 33 7.75
      vertex 1 33.01 1
    endloop
  endfacet
  facet normal 1 -0 0
    outer loop
      vertex 1 18.5 4
      vertex 1 33.01 1
      vertex 1 33 7.75
    endloop
  endfacet
  facet normal 1 0 0
    outer loop
      vertex 1 33.01 1
      vertex 1 18.5 4
      vertex 1 18.5 1
    endloop
  endfacet
  facet normal -1 0 0
    outer loop
      vertex 15.51 3 1
      vertex 15.51 17.51 4
      vertex 15.51 17.51 1
    endloop
  endfacet
  facet normal -1 -0 0
    outer loop
      vertex 15.51 17.51 4
      vertex 15.51 3 1
      vertex 15.51 3 4
    endloop
  endfacet
  facet normal 0 -1 0
    outer loop
      vertex 1 17.51 1
      vertex 15.51 17.51 4
      vertex 1 17.51 4
    endloop
  endfacet
  facet normal 0 -1 -0
    outer loop
      vertex 15.51 17.51 4
      vertex 1 17.51 1
      vertex 15.51 17.51 1
    endloop
  endfacet
  facet normal -0 0 1
    outer loop
      vertex 1 17.51 1
      vertex 15.51 3 1
      vertex 15.51 17.51 1
    endloop
  endfacet
  facet normal 0 0 1
    outer loop
      vertex 15.51 3 1
      vertex 1 17.51 1
      vertex 1 3 1
    endloop
  endfacet
  facet normal -1 0 0
    outer loop
      vertex 15.51 33.01 1
      vertex 15.51 33 4
      vertex 15.51 33.01 15.5
    endloop
  endfacet
  facet normal -1 0 0
    outer loop
      vertex 15.51 18.5 1
      vertex 15.51 33 4
      vertex 15.51 33.01 1
    endloop
  endfacet
  facet normal -1 -0 0
    outer loop
      vertex 15.51 33 4
      vertex 15.51 18.5 1
      vertex 15.51 18.5 4
    endloop
  endfacet
  facet normal -1 -0 0
    outer loop
      vertex 15.51 33.01 15.5
      vertex 15.51 33 4
      vertex 15.51 33 15.5
    endloop
  endfacet
  facet normal 0 -1 0
    outer loop
      vertex 1 33.01 1
      vertex 15.51 33.01 15.5
      vertex 1 33.01 15.5
    endloop
  endfacet
  facet normal 0 -1 -0
    outer loop
      vertex 15.51 33.01 15.5
      vertex 1 33.01 1
      vertex 15.51 33.01 1
    endloop
  endfacet
  facet normal -0 0 1
    outer loop
      vertex 1 33.01 1
      vertex 15.51 18.5 1
      vertex 15.51 33.01 1
    endloop
  endfacet
  facet normal 0 0 1
    outer loop
      vertex 15.51 18.5 1
      vertex 1 33.01 1
      vertex 1 18.5 1
    endloop
  endfacet
  facet normal 0 1 -0
    outer loop
      vertex 15.51 18.5 1
      vertex 1 18.5 4
      vertex 15.51 18.5 4
    endloop
  endfacet
  facet normal 0 1 0
    outer loop
      vertex 1 18.5 4
      vertex 15.51 18.5 1
      vertex 1 18.5 1
    endloop
  endfacet
  facet normal 1 -0 0
    outer loop
      vertex 16.5 3 4
      vertex 16.5 17.51 1
      vertex 16.5 17.51 4
    endloop
  endfacet
  facet normal 1 0 0
    outer loop
      vertex 16.5 17.51 1
      vertex 16.5 3 4
      vertex 16.5 3 1
    endloop
  endfacet
  facet normal -1 0 0
    outer loop
      vertex 31.01 3 1
      vertex 31.01 17.51 4
      vertex 31.01 17.51 1
    endloop
  endfacet
  facet normal -1 -0 0
    outer loop
      vertex 31.01 17.51 4
      vertex 31.01 3 1
      vertex 31.01 3 4
    endloop
  endfacet
  facet normal -0 0 1
    outer loop
      vertex 16.5 17.51 1
      vertex 31.01 3 1
      vertex 31.01 17.51 1
    endloop
  endfacet
  facet normal 0 0 1
    outer loop
      vertex 31.01 3 1
      vertex 16.5 17.51 1
      vertex 16.5 3 1
    endloop
  endfacet
  facet normal 0 -1 0
    outer loop
      vertex 16.5 17.51 1
      vertex 31.01 17.51 4
      vertex 16.5 17.51 4
    endloop
  endfacet
  facet normal 0 -1 -0
    outer loop
      vertex 31.01 17.51 4
      vertex 16.5 17.51 1
      vertex 31.01 17.51 1
    endloop
  endfacet
  facet normal 1 0 0
    outer loop
      vertex 16.5 33 4
      vertex 16.5 33.01 15.5
      vertex 16.5 33 15.5
    endloop
  endfacet
  facet normal 1 0 0
    outer loop
      vertex 16.5 33.01 15.5
      vertex 16.5 33 4
      vertex 16.5 33.01 1
    endloop
  endfacet
  facet normal 1 -0 0
    outer loop
      vertex 16.5 18.5 4
      vertex 16.5 33.01 1
      vertex 16.5 33 4
    endloop
  endfacet
  facet normal 1 0 0
    outer loop
      vertex 16.5 33.01 1
      vertex 16.5 18.5 4
      vertex 16.5 18.5 1
    endloop
  endfacet
  facet normal -1 0 0
    outer loop
      vertex 31.01 33.01 1
      vertex 31.01 33 4
      vertex 31.01 33.01 15.5
    endloop
  endfacet
  facet normal -1 0 0
    outer loop
      vertex 31.01 18.5 1
      vertex 31.01 33 4
      vertex 31.01 33.01 1
    endloop
  endfacet
  facet normal -1 -0 0
    outer loop
      vertex 31.01 33 4
      vertex 31.01 18.5 1
      vertex 31.01 18.5 4
    endloop
  endfacet
  facet normal -1 -0 0
    outer loop
      vertex 31.01 33.01 15.5
      vertex 31.01 33 4
      vertex 31.01 33 15.5
    endloop
  endfacet
  facet normal 0 -1 0
    outer loop
      vertex 16.5 33.01 1
      vertex 31.01 33.01 15.5
      vertex 16.5 33.01 15.5
    endloop
  endfacet
  facet normal 0 -1 -0
    outer loop
      vertex 31.01 33.01 15.5
      vertex 16.5 33.01 1
      vertex 31.01 33.01 1
    endloop
  endfacet
  facet normal -0 0 1
    outer loop
      vertex 16.5 33.01 1
      vertex 31.01 18.5 1
      vertex 31.01 33.01 1
    endloop
  endfacet
  facet normal 0 0 1
    outer loop
      vertex 31.01 18.5 1
      vertex 16.5 33.01 1
      vertex 16.5 18.5 1
    endloop
  endfacet
  facet normal 0 1 -0
    outer loop
      vertex 31.01 18.5 1
      vertex 16.5 18.5 4
      vertex 31.01 18.5 4
    endloop
  endfacet
  facet normal 0 1 0
    outer loop
      vertex 16.5 18.5 4
      vertex 31.01 18.5 1
      vertex 16.5 18.5 1
    endloop
  endfacet
  facet normal 1 -0 0
    outer loop
      vertex 32 3 4
      vertex 32 17.51 1
      vertex 32 17.51 4
    endloop
  endfacet
  facet normal 1 0 0
    outer loop
      vertex 32 17.51 1
      vertex 32 3 4
      vertex 32 3 1
    endloop
  endfacet
  facet normal -1 0 0
    outer loop
      vertex 46.51 3 1
      vertex 46.51 17.51 4
      vertex 46.51 17.51 1
    endloop
  endfacet
  facet normal -1 -0 0
    outer loop
      vertex 46.51 17.51 4
      vertex 46.51 3 1
      vertex 46.51 3 4
    endloop
  endfacet
  facet normal -0 0 1
    outer loop
      vertex 32 17.51 1
      vertex 46.51 3 1
      vertex 46.51 17.51 1
    endloop
  endfacet
  facet normal 0 0 1
    outer loop
      vertex 46.51 3 1
      vertex 32 17.51 1
      vertex 32 3 1
    endloop
  endfacet
  facet normal 0 -1 0
    outer loop
      vertex 32 17.51 1
      vertex 46.51 17.51 4
      vertex 32 17.51 4
    endloop
  endfacet
  facet normal 0 -1 -0
    outer loop
      vertex 46.51 17.51 4
      vertex 32 17.51 1
      vertex 46.51 17.51 1
    endloop
  endfacet
  facet normal 1 0 0
    outer loop
      vertex 32 33 4
      vertex 32 33.01 15.5
      vertex 32 33 15.5
    endloop
  endfacet
  facet normal 1 0 0
    outer loop
      vertex 32 33.01 15.5
      vertex 32 33 4
      vertex 32 33.01 1
    endloop
  endfacet
  facet normal 1 -0 0
    outer loop
      vertex 32 18.5 4
      vertex 32 33.01 1
      vertex 32 33 4
    endloop
  endfacet
  facet normal 1 0 0
    outer loop
      vertex 32 33.01 1
      vertex 32 18.5 4
      vertex 32 18.5 1
    endloop
  endfacet
  facet normal -1 0 0
    outer loop
      vertex 46.51 33.01 1
      vertex 46.51 33 4
      vertex 46.51 33.01 15.5
    endloop
  endfacet
  facet normal -1 0 0
    outer loop
      vertex 46.51 18.5 1
      vertex 46.51 33 4
      vertex 46.51 33.01 1
    endloop
  endfacet
  facet normal -1 -0 0
    outer loop
      vertex 46.51 33 4
      vertex 46.51 18.5 1
      vertex 46.51 18.5 4
    endloop
  endfacet
  facet normal -1 -0 0
    outer loop
      vertex 46.51 33.01 15.5
      vertex 46.51 33 4
      vertex 46.51 33 15.5
    endloop
  endfacet
  facet normal -0 0 1
    outer loop
      vertex 32 33.01 1
      vertex 46.51 18.5 1
      vertex 46.51 33.01 1
    endloop
  endfacet
  facet normal 0 0 1
    outer loop
      vertex 46.51 18.5 1
      vertex 32 33.01 1
      vertex 32 18.5 1
    endloop
  endfacet
  facet normal 0 1 -0
    outer loop
      vertex 46.51 18.5 1
      vertex 32 18.5 4
      vertex 46.51 18.5 4
    endloop
  endfacet
  facet normal 0 1 0
    outer loop
      vertex 32 18.5 4
      vertex 46.51 18.5 1
      vertex 32 18.5 1
    endloop
  endfacet
  facet normal 0 -1 0
    outer loop
      vertex 32 33.01 1
      vertex 46.51 33.01 15.5
      vertex 32 33.01 15.5
    endloop
  endfacet
  facet normal 0 -1 -0
    outer loop
      vertex 46.51 33.01 15.5
      vertex 32 33.01 1
      vertex 46.51 33.01 1
    endloop
  endfacet
  facet normal 1 -0 0
    outer loop
      vertex 47.5 3 4
      vertex 47.5 17.51 1
      vertex 47.5 17.51 4
    endloop
  endfacet
  facet normal 1 0 0
    outer loop
      vertex 47.5 17.51 1
      vertex 47.5 3 4
      vertex 47.5 3 1
    endloop
  endfacet
  facet normal -1 0 0
    outer loop
      vertex 62.01 3 1
      vertex 62.01 17.51 7.75
      vertex 62.01 17.51 1
    endloop
  endfacet
  facet normal -1 -0 0
    outer loop
      vertex 62.01 17.51 7.75
      vertex 62.01 3 1
      vertex 62.01 3 7.75
    endloop
  endfacet
  facet normal 0 -1 0
    outer loop
      vertex 47.5 17.51 4
      vertex 47.5 17.51 1
      vertex 62 17.51 4
    endloop
  endfacet
  facet normal 0 -1 0
    outer loop
      vertex 62 17.51 4
      vertex 62.01 17.51 7.75
      vertex 62 17.51 7.75
    endloop
  endfacet
  facet normal 0 -1 0
    outer loop
      vertex 62 17.51 4
      vertex 62.01 17.51 1
      vertex 62.01 17.51 7.75
    endloop
  endfacet
  facet normal 0 -1 0
    outer loop
      vertex 62.01 17.51 1
      vertex 62 17.51 4
      vertex 47.5 17.51 1
    endloop
  endfacet
  facet normal -0 0 1
    outer loop
      vertex 47.5 17.51 1
      vertex 62.01 3 1
      vertex 62.01 17.51 1
    endloop
  endfacet
  facet normal 0 0 1
    outer loop
      vertex 62.01 3 1
      vertex 47.5 17.51 1
      vertex 47.5 3 1
    endloop
  endfacet
  facet normal 1 0 0
    outer loop
      vertex 47.5 33 4
      vertex 47.5 33.01 15.5
      vertex 47.5 33 15.5
    endloop
  endfacet
  facet normal 1 0 0
    outer loop
      vertex 47.5 33.01 15.5
      vertex 47.5 33 4
      vertex 47.5 33.01 1
    endloop
  endfacet
  facet normal 1 -0 0
    outer loop
      vertex 47.5 18.5 4
      vertex 47.5 33.01 1
      vertex 47.5 33 4
    endloop
  endfacet
  facet normal 1 0 0
    outer loop
      vertex 47.5 33.01 1
      vertex 47.5 18.5 4
      vertex 47.5 18.5 1
    endloop
  endfacet
  facet normal -1 0 0
    outer loop
      vertex 62.01 33.01 1
      vertex 62.01 33 7.75
      vertex 62.01 33.01 15.5
    endloop
  endfacet
  facet normal -1 0 0
    outer loop
      vertex 62.01 18.5 1
      vertex 62.01 33 7.75
      vertex 62.01 33.01 1
    endloop
  endfacet
  facet normal -1 -0 0
    outer loop
      vertex 62.01 33 7.75
      vertex 62.01 18.5 1
      vertex 62.01 18.5 7.75
    endloop
  endfacet
  facet normal -1 -0 0
    outer loop
      vertex 62.01 33.01 15.5
      vertex 62.01 33 7.75
      vertex 62.01 33 15.5
    endloop
  endfacet
  facet normal -0 0 1
    outer loop
      vertex 47.5 33.01 1
      vertex 62.01 18.5 1
      vertex 62.01 33.01 1
    endloop
  endfacet
  facet normal 0 0 1
    outer loop
      vertex 62.01 18.5 1
      vertex 47.5 33.01 1
      vertex 47.5 18.5 1
    endloop
  endfacet
  facet normal 0 1 0
    outer loop
      vertex 62.01 18.5 7.75
      vertex 62 18.5 4
      vertex 62 18.5 7.75
    endloop
  endfacet
  facet normal 0 1 -0
    outer loop
      vertex 62.01 18.5 1
      vertex 62 18.5 4
      vertex 62.01 18.5 7.75
    endloop
  endfacet
  facet normal 0 1 0
    outer loop
      vertex 62.01 18.5 1
      vertex 47.5 18.5 4
      vertex 62 18.5 4
    endloop
  endfacet
  facet normal 0 1 0
    outer loop
      vertex 47.5 18.5 4
      vertex 62.01 18.5 1
      vertex 47.5 18.5 1
    endloop
  endfacet
  facet normal 0 -1 0
    outer loop
      vertex 47.5 33.01 1
      vertex 62.01 33.01 15.5
      vertex 47.5 33.01 15.5
    endloop
  endfacet
  facet normal 0 -1 -0
    outer loop
      vertex 62.01 33.01 15.5
      vertex 47.5 33.01 1
      vertex 62.01 33.01 1
    endloop
  endfacet
  facet normal -1 0 0
    outer loop
      vertex 62 17.51 4
      vertex 62 18.5 7.75
      vertex 62 18.5 4
    endloop
  endfacet
  facet normal -1 -0 0
    outer loop
      vertex 62 18.5 7.75
      vertex 62 17.51 4
      vertex 62 17.51 7.75
    endloop
  endfacet
  facet normal -0 0 1
    outer loop
      vertex 1 18.5 4
      vertex 15.51 17.51 4
      vertex 15.51 18.5 4
    endloop
  endfacet
  facet normal 0 0 1
    outer loop
      vertex 15.51 17.51 4
      vertex 1 18.5 4
      vertex 1 17.51 4
    endloop
  endfacet
  facet normal 0 0 1
    outer loop
      vertex 15.51 18.5 4
      vertex 16.5 18.5 4
      vertex 16.5 33 4
    endloop
  endfacet
  facet normal 0 0 1
    outer loop
      vertex 16.5 18.5 4
      vertex 15.51 18.5 4
      vertex 16.5 17.51 4
    endloop
  endfacet
  facet normal 0 0 1
    outer loop
      vertex 15.51 18.5 4
      vertex 16.5 33 4
      vertex 15.51 33 4
    endloop
  endfacet
  facet normal 0 0 1
    outer loop
      vertex 15.51 17.51 4
      vertex 16.5 17.51 4
      vertex 15.51 18.5 4
    endloop
  endfacet
  facet normal 0 0 1
    outer loop
      vertex 16.5 17.51 4
      vertex 15.51 17.51 4
      vertex 16.5 3 4
    endloop
  endfacet
  facet normal 0 0 1
    outer loop
      vertex 16.5 3 4
      vertex 15.51 17.51 4
      vertex 15.51 3 4
    endloop
  endfacet
  facet normal -0 0 1
    outer loop
      vertex 16.5 18.5 4
      vertex 31.01 17.51 4
      vertex 31.01 18.5 4
    endloop
  endfacet
  facet normal 0 0 1
    outer loop
      vertex 31.01 17.51 4
      vertex 16.5 18.5 4
      vertex 16.5 17.51 4
    endloop
  endfacet
  facet normal 0 0 1
    outer loop
      vertex 31.01 18.5 4
      vertex 32 18.5 4
      vertex 32 33 4
    endloop
  endfacet
  facet normal 0 0 1
    outer loop
      vertex 32 18.5 4
      vertex 31.01 18.5 4
      vertex 32 17.51 4
    endloop
  endfacet
  facet normal 0 0 1
    outer loop
      vertex 31.01 18.5 4
      vertex 32 33 4
      vertex 31.01 33 4
    endloop
  endfacet
  facet normal 0 0 1
    outer loop
      vertex 31.01 17.51 4
      vertex 32 17.51 4
      vertex 31.01 18.5 4
    endloop
  endfacet
  facet normal 0 0 1
    outer loop
      vertex 32 17.51 4
      vertex 31.01 17.51 4
      vertex 32 3 4
    endloop
  endfacet
  facet normal 0 0 1
    outer loop
      vertex 32 3 4
      vertex 31.01 17.51 4
      vertex 31.01 3 4
    endloop
  endfacet
  facet normal -0 0 1
    outer loop
      vertex 32 18.5 4
      vertex 46.51 17.51 4
      vertex 46.51 18.5 4
    endloop
  endfacet
  facet normal 0 0 1
    outer loop
      vertex 46.51 17.51 4
      vertex 32 18.5 4
      vertex 32 17.51 4
    endloop
  endfacet
  facet normal 0 0 1
    outer loop
      vertex 46.51 18.5 4
      vertex 47.5 18.5 4
      vertex 47.5 33 4
    endloop
  endfacet
  facet normal 0 0 1
    outer loop
      vertex 47.5 18.5 4
      vertex 46.51 18.5 4
      vertex 47.5 17.51 4
    endloop
  endfacet
  facet normal 0 0 1
    outer loop
      vertex 46.51 18.5 4
      vertex 47.5 33 4
      vertex 46.51 33 4
    endloop
  endfacet
  facet normal 0 0 1
    outer loop
      vertex 46.51 17.51 4
      vertex 47.5 17.51 4
      vertex 46.51 18.5 4
    endloop
  endfacet
  facet normal 0 0 1
    outer loop
      vertex 47.5 17.51 4
      vertex 46.51 17.51 4
      vertex 47.5 3 4
    endloop
  endfacet
  facet normal 0 0 1
    outer loop
      vertex 47.5 3 4
      vertex 46.51 17.51 4
      vertex 46.51 3 4
    endloop
  endfacet
  facet normal -0 0 1
    outer loop
      vertex 47.5 18.5 4
      vertex 62 17.51 4
      vertex 62 18.5 4
    endloop
  endfacet
  facet normal 0 0 1
    outer loop
      vertex 62 17.51 4
      vertex 47.5 18.5 4
      vertex 47.5 17.51 4
    endloop
  endfacet
  facet normal -0 0 1
    outer loop
      vertex 0 33 7.75
      vertex 1 3 7.75
      vertex 1 33 7.75
    endloop
  endfacet
  facet normal 0 0 1
    outer loop
      vertex 1 3 7.75
      vertex 0 33 7.75
      vertex 0 3 7.75
    endloop
  endfacet
  facet normal -0 0 1
    outer loop
      vertex 62 18.5 7.75
      vertex 62.01 17.51 7.75
      vertex 62.01 18.5 7.75
    endloop
  endfacet
  facet normal 0 0 1
    outer loop
      vertex 62.01 17.51 7.75
      vertex 62 18.5 7.75
      vertex 62 17.51 7.75
    endloop
  endfacet
  facet normal 0 0 1
    outer loop
      vertex 62.01 18.5 7.75
      vertex 63 33 7.75
      vertex 62.01 33 7.75
    endloop
  endfacet
  facet normal 0 0 1
    outer loop
      vertex 63 33 7.75
      vertex 62.01 18.5 7.75
      vertex 63 3 7.75
    endloop
  endfacet
  facet normal -0 0 1
    outer loop
      vertex 62.01 17.51 7.75
      vertex 63 3 7.75
      vertex 62.01 18.5 7.75
    endloop
  endfacet
  facet normal 0 0 1
    outer loop
      vertex 63 3 7.75
      vertex 62.01 17.51 7.75
      vertex 62.01 3 7.75
    endloop
  endfacet
  facet normal -1 0 0
    outer loop
      vertex 0 33 7.75
      vertex 0 36 17
      vertex 0 36 0
    endloop
  endfacet
  facet normal -1 0 0
    outer loop
      vertex 0 36 17
      vertex 0 33 7.75
      vertex 0 34.49 15.5
    endloop
  endfacet
  facet normal -1 0 0
    outer loop
      vertex 0 36 0
      vertex 0 3 7.75
      vertex 0 33 7.75
    endloop
  endfacet
  facet normal -1 0 0
    outer loop
      vertex 0 3 7.75
      vertex 0 1.51 15.5
      vertex 0 3 15.5
    endloop
  endfacet
  facet normal -1 0 0
    outer loop
      vertex 0 0 17
      vertex 0 3 7.75
      vertex 0 0 0
    endloop
  endfacet
  facet normal -1 0 0
    outer loop
      vertex 0 0 0
      vertex 0 3 7.75
      vertex 0 36 0
    endloop
  endfacet
  facet normal -1 0 0
    outer loop
      vertex 0 33 16.99
      vertex 0 36 17
      vertex 0 34.49 15.5
    endloop
  endfacet
  facet normal -1 -0 0
    outer loop
      vertex 0 36 17
      vertex 0 33 16.99
      vertex 0 33 17
    endloop
  endfacet
  facet normal -1 -0 0
    outer loop
      vertex 0 34.49 15.5
      vertex 0 33 7.75
      vertex 0 33 15.5
    endloop
  endfacet
  facet normal -1 0 0
    outer loop
      vertex 0 1.51 15.5
      vertex 0 3 17
      vertex 0 3 16.99
    endloop
  endfacet
  facet normal -1 0 0
    outer loop
      vertex 0 1.51 15.5
      vertex 0 0 17
      vertex 0 3 17
    endloop
  endfacet
  facet normal -1 0 0
    outer loop
      vertex 0 3 7.75
      vertex 0 0 17
      vertex 0 1.51 15.5
    endloop
  endfacet
  facet normal -0 0 1
    outer loop
      vertex 0 3 17
      vertex 63 0 17
      vertex 63 3 17
    endloop
  endfacet
  facet normal 0 0 1
    outer loop
      vertex 63 0 17
      vertex 0 3 17
      vertex 0 0 17
    endloop
  endfacet
  facet normal -0 0 1
    outer loop
      vertex 0 36 17
      vertex 63 33 17
      vertex 63 36 17
    endloop
  endfacet
  facet normal 0 0 1
    outer loop
      vertex 63 33 17
      vertex 0 36 17
      vertex 0 33 17
    endloop
  endfacet
  facet normal 1 0 0
    outer loop
      vertex 63 3 17
      vertex 63 1.51 15.5
      vertex 63 3 16.99
    endloop
  endfacet
  facet normal 1 0 -0
    outer loop
      vertex 63 1.51 15.5
      vertex 63 3 17
      vertex 63 0 17
    endloop
  endfacet
  facet normal 1 0 0
    outer loop
      vertex 63 3 15.5
      vertex 63 1.51 15.5
      vertex 63 3 7.75
    endloop
  endfacet
  facet normal 1 0 0
    outer loop
      vertex 63 33 7.75
      vertex 63 36 17
      vertex 63 34.49 15.5
    endloop
  endfacet
  facet normal 1 -0 0
    outer loop
      vertex 63 33 17
      vertex 63 34.49 15.5
      vertex 63 36 17
    endloop
  endfacet
  facet normal 1 0 0
    outer loop
      vertex 63 34.49 15.5
      vertex 63 33 17
      vertex 63 33 16.99
    endloop
  endfacet
  facet normal 1 0 0
    outer loop
      vertex 63 33 7.75
      vertex 63 34.49 15.5
      vertex 63 33 15.5
    endloop
  endfacet
  facet normal 1 0 0
    outer loop
      vertex 63 36 17
      vertex 63 33 7.75
      vertex 63 36 0
    endloop
  endfacet
  facet normal 1 -0 0
    outer loop
      vertex 63 3 7.75
      vertex 63 36 0
      vertex 63 33 7.75
    endloop
  endfacet
  facet normal 1 0 0
    outer loop
      vertex 63 0 17
      vertex 63 3 7.75
      vertex 63 1.51 15.5
    endloop
  endfacet
  facet normal 1 0 0
    outer loop
      vertex 63 3 7.75
      vertex 63 0 0
      vertex 63 36 0
    endloop
  endfacet
  facet normal 1 0 0
    outer loop
      vertex 63 0 0
      vertex 63 3 7.75
      vertex 63 0 17
    endloop
  endfacet
  facet normal 0 1 -0
    outer loop
      vertex 63 36 0
      vertex 0 36 17
      vertex 63 36 17
    endloop
  endfacet
  facet normal 0 1 0
    outer loop
      vertex 0 36 17
      vertex 63 36 0
      vertex 0 36 0
    endloop
  endfacet
  facet normal 0 0 -1
    outer loop
      vertex 0 0 0
      vertex 63 36 0
      vertex 63 0 0
    endloop
  endfacet
  facet normal -0 0 -1
    outer loop
      vertex 63 36 0
      vertex 0 0 0
      vertex 0 36 0
    endloop
  endfacet
  facet normal 0 -1 0
    outer loop
      vertex 0 0 0
      vertex 63 0 17
      vertex 0 0 17
    endloop
  endfacet
  facet normal 0 -1 -0
    outer loop
      vertex 63 0 17
      vertex 0 0 0
      vertex 63 0 0
    endloop
  endfacet
endsolid OpenSCAD_Model
